<svg width="12" height="14" viewBox="0 0 12 14" fill="none" xmlns="http://www.w3.org/2000/svg">
<path fill-rule="evenodd" clip-rule="evenodd" d="M5.64325 14L6.05566 13.6399C9.52373 10.6116 11.2865 7.96749 11.2865 5.64325C11.2865 2.35177 8.71753 0 5.64325 0C2.56896 0 0 2.35177 0 5.64325C0 7.96749 1.76277 10.6116 5.23083 13.6399L5.64325 14ZM5.64279 12.3296C2.69991 9.67735 1.2536 7.42989 1.2536 5.64334C1.2536 3.0704 3.23759 1.25415 5.64279 1.25415C8.048 1.25415 10.032 3.0704 10.032 5.64334C10.032 7.42989 8.58568 9.67735 5.64279 12.3296ZM5.64341 2.50806C7.3749 2.50806 8.77854 3.91171 8.77854 5.64319C8.77854 7.37468 7.3749 8.77833 5.64341 8.77833C3.91192 8.77833 2.50827 7.37468 2.50827 5.64319C2.50827 3.91171 3.91192 2.50806 5.64341 2.50806ZM3.76184 5.64317C3.76184 4.60427 4.60403 3.76208 5.64292 3.76208C6.68182 3.76208 7.52401 4.60427 7.52401 5.64317C7.52401 6.68206 6.68182 7.52425 5.64292 7.52425C4.60403 7.52425 3.76184 6.68206 3.76184 5.64317Z" fill="#35302F"/>
</svg>
