<svg width="32" height="36" viewBox="0 0 32 36" fill="none" xmlns="http://www.w3.org/2000/svg">
<path fill-rule="evenodd" clip-rule="evenodd" d="M11.8681 1.18681C11.8681 0.531355 12.3995 0 13.055 0H18.5934C19.2489 0 19.7802 0.531355 19.7802 1.18681C19.7802 1.84227 19.2489 2.37363 18.5934 2.37363H17.011V4.39542C20.3894 4.64592 23.4726 5.95715 25.9288 7.99727L28.04 5.88605C28.5034 5.42257 29.2549 5.42257 29.7184 5.88605C30.1819 6.34953 30.1819 7.10098 29.7184 7.56446L27.6367 9.64611C30.1319 12.4433 31.6484 16.1325 31.6484 20.1758C31.6484 28.9152 24.5637 36 15.8242 36C7.08473 36 0 28.9152 0 20.1758C0 16.1325 1.51646 12.4433 4.01166 9.6461L1.93002 7.56446C1.46654 7.10098 1.46654 6.34953 1.93002 5.88605C2.3935 5.42257 3.14495 5.42257 3.60843 5.88605L5.71964 7.99727C8.17576 5.95715 11.259 4.64592 14.6374 4.39542V2.37363H13.055C12.3995 2.37363 11.8681 1.84227 11.8681 1.18681ZM29.2748 20.1758C29.2748 27.6043 23.2527 33.6263 15.8242 33.6263C8.39565 33.6263 2.37363 27.6043 2.37363 20.1758C2.37363 12.7472 8.39565 6.72522 15.8242 6.72522C23.2527 6.72522 29.2748 12.7472 29.2748 20.1758ZM13.1707 20.9708C13.0954 20.719 13.0549 20.4521 13.0549 20.1758C13.0549 18.6463 14.2948 17.4065 15.8242 17.4065C16.1506 17.4065 16.4639 17.463 16.7547 17.5667L20.5234 13.798C20.9869 13.3346 21.7384 13.3346 22.2018 13.798C22.3458 13.942 22.445 14.1137 22.4996 14.296C22.6207 14.7005 22.5214 15.157 22.2019 15.4766L18.4332 19.2452C18.4409 19.2669 18.4484 19.2887 18.4556 19.3107C18.4725 19.3623 18.488 19.4145 18.502 19.4674C18.5616 19.6936 18.5934 19.931 18.5934 20.1758C18.5934 21.7053 17.3536 22.9451 15.8242 22.9451C14.5711 22.9451 13.5124 22.1127 13.1707 20.9708Z" fill="#5888EA"/>
</svg>
