<svg width="13" height="13" viewBox="0 0 13 13" fill="none" xmlns="http://www.w3.org/2000/svg">
<path d="M11.0957 0H1.9043C0.854355 0 0 0.840948 0 1.87441V10.9216C0 11.955 0.854355 12.796 1.9043 12.796H11.0957C12.1456 12.796 13 11.955 13 10.9216V1.87441C13 0.840948 12.1456 0 11.0957 0ZM6.52539 9.74695C4.63528 9.74695 3.09766 8.23346 3.09766 6.373C3.09766 4.51255 4.63528 2.99906 6.52539 2.99906C8.4155 2.99906 9.95312 4.51255 9.95312 6.373C9.95312 8.23346 8.4155 9.74695 6.52539 9.74695ZM10.334 3.74883C9.70398 3.74883 9.19141 3.2443 9.19141 2.62418C9.19141 2.00406 9.70398 1.49953 10.334 1.49953C10.964 1.49953 11.4766 2.00406 11.4766 2.62418C11.4766 3.2443 10.964 3.74883 10.334 3.74883Z" fill="white"/>
<path d="M10.3349 2.2489C10.1248 2.2489 9.9541 2.41697 9.9541 2.6239C9.9541 2.83084 10.1248 2.99891 10.3349 2.99891C10.545 2.99891 10.7157 2.83084 10.7157 2.6239C10.7157 2.41697 10.545 2.2489 10.3349 2.2489Z" fill="white"/>
<path d="M6.49967 4.26495C5.30511 4.26495 4.33301 5.22186 4.33301 6.39777C4.33301 7.57367 5.30511 8.53058 6.49967 8.53058C7.69424 8.53058 8.66634 7.57367 8.66634 6.39777C8.66634 5.22186 7.69424 4.26495 6.49967 4.26495Z" fill="white"/>
</svg>
