<svg width="36" height="36" viewBox="0 0 36 36" fill="none" xmlns="http://www.w3.org/2000/svg">
<path fill-rule="evenodd" clip-rule="evenodd" d="M12.6818 11.4545C12.004 11.4545 11.4545 12.004 11.4545 12.6818V23.3182C11.4545 23.996 12.004 24.5455 12.6818 24.5455H23.3182C23.996 24.5455 24.5455 23.996 24.5455 23.3182V12.6818C24.5455 12.004 23.996 11.4545 23.3182 11.4545H12.6818ZM13.9091 22.0909V13.9091H22.0909V22.0909H13.9091Z" fill="#E6EBF1"/>
<path fill-rule="evenodd" clip-rule="evenodd" d="M23.3182 0C23.996 0 24.5455 0.549469 24.5455 1.22727V4.90909H28.2273C29.8088 4.90909 31.0909 6.19118 31.0909 7.77273V11.4545H34.7727C35.4505 11.4545 36 12.004 36 12.6818C36 13.3596 35.4505 13.9091 34.7727 13.9091H31.0909V22.0909H34.7727C35.4505 22.0909 36 22.6404 36 23.3182C36 23.996 35.4505 24.5455 34.7727 24.5455H31.0909V28.2273C31.0909 29.8088 29.8088 31.0909 28.2273 31.0909H24.5455V34.7727C24.5455 35.4505 23.996 36 23.3182 36C22.6404 36 22.0909 35.4505 22.0909 34.7727V31.0909H13.9091V34.7727C13.9091 35.4505 13.3596 36 12.6818 36C12.004 36 11.4545 35.4505 11.4545 34.7727V31.0909H7.77273C6.19118 31.0909 4.90909 29.8088 4.90909 28.2273V24.5455H1.22727C0.549469 24.5455 0 23.996 0 23.3182C0 22.6404 0.549469 22.0909 1.22727 22.0909H4.90909V13.9091H1.22727C0.549469 13.9091 0 13.3596 0 12.6818C0 12.004 0.549469 11.4545 1.22727 11.4545H4.90909V7.77273C4.90909 6.19118 6.19118 4.90909 7.77273 4.90909H11.4545V1.22727C11.4545 0.549469 12.004 0 12.6818 0C13.3596 0 13.9091 0.549469 13.9091 1.22727V4.90909H22.0909V1.22727C22.0909 0.549469 22.6404 0 23.3182 0ZM28.2273 28.6364C28.4532 28.6364 28.6364 28.4532 28.6364 28.2273V7.77273C28.6364 7.54679 28.4532 7.36364 28.2273 7.36364H7.77273C7.54679 7.36364 7.36364 7.54679 7.36364 7.77273V28.2273C7.36364 28.4532 7.54679 28.6364 7.77273 28.6364H28.2273Z" fill="#E6EBF1"/>
<path fill-rule="evenodd" clip-rule="evenodd" d="M12.6818 11.4546C12.004 11.4546 11.4545 12.0041 11.4545 12.6819V23.3182C11.4545 23.996 12.004 24.5455 12.6818 24.5455H23.3182C23.996 24.5455 24.5454 23.996 24.5454 23.3182V12.6819C24.5454 12.0041 23.996 11.4546 23.3182 11.4546H12.6818ZM13.9091 22.091V13.9091H22.0909V22.091H13.9091Z" fill="#5888EA"/>
</svg>
