<svg width="33" height="36" viewBox="0 0 33 36" fill="none" xmlns="http://www.w3.org/2000/svg">
<path fill-rule="evenodd" clip-rule="evenodd" d="M17.3908 0.137264C16.8118 -0.0457546 16.1882 -0.045755 15.6092 0.137264L1.99669 4.43992C0.807629 4.81576 0 5.89399 0 7.11513V15.1941C8.55625e-06 25.147 6.22181 32.4083 15.5116 35.8245C16.148 36.0585 16.852 36.0585 17.4884 35.8245C26.7782 32.4083 33 25.147 33 15.1941V7.11559C33 5.89485 32.1928 4.81588 31.0033 4.43992L17.3908 0.137264ZM16.3727 2.4317C16.4555 2.40556 16.5445 2.40556 16.6273 2.4317L30.2398 6.73436C30.4108 6.78843 30.525 6.94238 30.525 7.11559V15.1941C30.525 23.9763 25.1118 30.443 16.6146 33.5677C16.5414 33.5946 16.4586 33.5946 16.3854 33.5677C7.88824 30.443 2.47501 23.9763 2.475 15.1941L2.475 7.11513C2.475 6.94233 2.58877 6.78856 2.76024 6.73436L16.3727 2.4317Z" fill="#E6EBF1"/>
<path d="M22.975 15.0589C23.4583 14.5879 23.4583 13.8242 22.975 13.3532C22.4918 12.8823 21.7082 12.8823 21.2249 13.3532L14.85 19.5408L12.6 17.3734C12.1168 16.9024 11.3332 16.9024 10.8499 17.3734C10.3667 17.8444 10.3667 18.608 10.8499 19.079L13.9749 22.0992C14.4582 22.5702 15.2418 22.5702 15.725 22.0992L22.975 15.0589Z" fill="#5888EA"/>
</svg>
