<svg width="14" height="14" viewBox="0 0 14 14" fill="none" xmlns="http://www.w3.org/2000/svg">
<path fill-rule="evenodd" clip-rule="evenodd" d="M7 14C3.13401 14 0 10.866 0 7C0 3.13401 3.13401 0 7 0C10.866 0 14 3.13401 14 7C14 10.866 10.866 14 7 14ZM7.00001 12.7273C10.1631 12.7273 12.7273 10.1631 12.7273 6.99998C12.7273 3.83689 10.1631 1.27271 7.00001 1.27271C3.83692 1.27271 1.27274 3.83689 1.27274 6.99998C1.27274 10.1631 3.83692 12.7273 7.00001 12.7273ZM10.1818 6.3637H7.63637V3.18188H6.36365V7.63643H10.1818V6.3637Z" fill="#35302F"/>
</svg>
