<svg width="21" height="21" viewBox="0 0 21 21" fill="none" xmlns="http://www.w3.org/2000/svg">
<rect width="21" height="21" rx="5" fill="#5888EA"/>
<path d="M13.8041 6H7.33938C6.60091 6 6 6.59148 6 7.31836V13.6816C6 14.4085 6.60091 15 7.33938 15H13.8041C14.5426 15 15.1435 14.4085 15.1435 13.6816V7.31836C15.1435 6.59148 14.5426 6 13.8041 6ZM10.5896 12.8555C9.2602 12.8555 8.17872 11.791 8.17872 10.4824C8.17872 9.17388 9.2602 8.10938 10.5896 8.10938C11.919 8.10938 13.0005 9.17388 13.0005 10.4824C13.0005 11.791 11.919 12.8555 10.5896 12.8555ZM13.2684 8.63672C12.8252 8.63672 12.4647 8.28186 12.4647 7.8457C12.4647 7.40955 12.8252 7.05469 13.2684 7.05469C13.7115 7.05469 14.072 7.40955 14.072 7.8457C14.072 8.28186 13.7115 8.63672 13.2684 8.63672Z" fill="white"/>
<path d="M13.2688 7.58179C13.121 7.58179 13.001 7.7 13.001 7.84554C13.001 7.99109 13.121 8.1093 13.2688 8.1093C13.4166 8.1093 13.5366 7.99109 13.5366 7.84554C13.5366 7.7 13.4166 7.58179 13.2688 7.58179Z" fill="white"/>
<path d="M10.5718 8.99976C9.73157 8.99976 9.04785 9.67279 9.04785 10.4999C9.04785 11.3269 9.73157 12 10.5718 12C11.412 12 12.0957 11.3269 12.0957 10.4999C12.0957 9.67279 11.412 8.99976 10.5718 8.99976Z" fill="white"/>
</svg>
