<svg width="21" height="22" viewBox="0 0 21 22" fill="none" xmlns="http://www.w3.org/2000/svg">
<rect y="0.728516" width="21" height="21" rx="5" fill="#35302F"/>
<path d="M13.8041 6.72852H7.33938C6.60091 6.72852 6 7.31999 6 8.04688V14.4102C6 15.137 6.60091 15.7285 7.33938 15.7285H13.8041C14.5426 15.7285 15.1435 15.137 15.1435 14.4102V8.04688C15.1435 7.31999 14.5426 6.72852 13.8041 6.72852ZM10.5896 13.584C9.2602 13.584 8.17872 12.5195 8.17872 11.2109C8.17872 9.9024 9.2602 8.83789 10.5896 8.83789C11.919 8.83789 13.0005 9.9024 13.0005 11.2109C13.0005 12.5195 11.919 13.584 10.5896 13.584ZM13.2684 9.36523C12.8252 9.36523 12.4647 9.01038 12.4647 8.57422C12.4647 8.13806 12.8252 7.7832 13.2684 7.7832C13.7115 7.7832 14.072 8.13806 14.072 8.57422C14.072 9.01038 13.7115 9.36523 13.2684 9.36523Z" fill="white"/>
<path d="M13.2683 8.3103C13.1205 8.3103 13.0005 8.42851 13.0005 8.57406C13.0005 8.71961 13.1205 8.83782 13.2683 8.83782C13.4161 8.83782 13.5362 8.71961 13.5362 8.57406C13.5362 8.42851 13.4161 8.3103 13.2683 8.3103Z" fill="white"/>
<path d="M10.5717 9.72827C9.73154 9.72827 9.04782 10.4013 9.04782 11.2284C9.04782 12.0554 9.73154 12.7285 10.5717 12.7285C11.4119 12.7285 12.0957 12.0554 12.0957 11.2284C12.0957 10.4013 11.4119 9.72827 10.5717 9.72827Z" fill="white"/>
</svg>
