<svg width="37" height="45" viewBox="0 0 37 45" fill="none" xmlns="http://www.w3.org/2000/svg">
<path d="M18.1102 6.35205C12.1754 6.35205 7.34656 11.1522 7.34656 17.087C7.34656 23.0218 12.1754 27.8507 18.1102 27.8507C24.045 27.8507 28.8738 23.0218 28.8738 17.087C28.874 11.1522 24.045 6.35205 18.1102 6.35205Z" fill="#5888EA"/>
<path fill-rule="evenodd" clip-rule="evenodd" d="M19.852 43.8425L18.5 45L17.148 43.8425C5.7788 34.1088 0 25.6098 0 18.139C0 7.55926 8.42172 0 18.5 0C28.5783 0 37 7.55926 37 18.139C37 25.6098 31.2212 34.1088 19.852 43.8425Z" fill="#5888EA"/>
<path fill-rule="evenodd" clip-rule="evenodd" d="M19.8754 29.9448H17.3497C17.2994 29.8573 17.1608 29.3431 17.0105 28.7854C16.8332 28.1274 16.6395 27.4088 16.5549 27.2578L16.0749 27.2603L15.5447 26.7366L19.2134 25.4243L16.3208 25.6359C16.3181 25.6136 16.3153 25.5801 16.3121 25.5403C16.2997 25.3871 16.2797 25.1422 16.2228 25.1011L15.5415 24.5665L19.3705 23.2197C19.3744 23.2069 19.3825 23.2017 19.3906 23.1964C19.3949 23.1937 19.3991 23.191 19.4028 23.1873L17.0852 23.3658C16.9537 23.3689 16.8468 23.3878 16.7401 23.4066C16.6111 23.4293 16.4826 23.452 16.3115 23.4465L16.3162 22.9415L15.5085 22.3815L19.3747 21.0194L16.3057 21.2239L16.285 20.7196L15.5305 20.125L19.0987 18.9594L16.2248 18.9813L16.2248 16.7687L20.6708 15.2866L20.6734 18.3861C20.751 18.454 20.894 18.559 21.0495 18.6731C21.3135 18.8668 21.6136 19.087 21.6914 19.1976C21.3026 19.5192 20.944 19.8181 20.6658 20.0717C20.6668 20.2397 20.6603 20.3511 20.656 20.4253C20.6506 20.5162 20.6485 20.5515 20.6677 20.5675C20.8804 20.746 21.0784 20.8989 21.2849 21.0585C21.4175 21.161 21.5537 21.2662 21.6995 21.3827C21.2915 21.7374 21.0365 21.9489 20.6686 22.2141L20.6737 22.7561C20.7306 22.8407 21.0156 23.0546 21.2779 23.2516C21.4436 23.376 21.6003 23.4937 21.6848 23.5676C21.5394 23.6837 21.4219 23.7758 21.3218 23.8542C21.0374 24.077 20.8932 24.1901 20.6484 24.4303C20.6484 24.4303 20.6355 24.7845 20.6331 25.0137C20.893 25.1754 21.0757 25.3055 21.2672 25.4418C21.3997 25.5361 21.5365 25.6335 21.706 25.7465C21.4009 26.03 21.1484 26.2245 20.8707 26.4386C20.8056 26.4888 20.7391 26.54 20.6703 26.5938L19.8754 29.9448ZM20.6696 13.8596L16.2248 15.3412L16.2248 13.0792H13.926C13.9261 10.802 15.69 9 17.8415 9V10.764H19.1851V9C21.5333 9 22.9665 10.7815 22.9665 13.0792H20.6689L20.6696 13.8596Z" fill="white"/>
</svg>
