<svg width="250" height="334" viewBox="0 0 250 334" fill="none" xmlns="http://www.w3.org/2000/svg">
<path d="M141.257 153.7C141.111 153.712 126.425 155.058 108.722 165.28C91.2273 175.38 85.1114 185.845 85.0548 185.95L84.0844 190.041C84.0844 190.041 82.0774 189.497 80.346 186.498C78.6145 183.499 79.1605 182.058 79.1605 182.058C79.4282 181.571 86.0309 170.076 105.126 159.052C124.093 148.101 139.558 146.701 140.208 146.641C141.626 147.426 142.801 148.587 143.603 149.995C144.452 151.55 144.911 153.287 144.942 155.058L141.257 153.7Z" fill="#35302F"/>
<path d="M151.686 38.4537C159.131 30.4452 166.783 29.1612 168.351 26.7608L180.911 6.99094L179.113 5.32725L176.552 2.88819L174.754 1.2245L155.958 15.2012C153.664 16.9673 152.947 24.6944 145.502 32.7029L107.404 73.7555L109.202 75.4192L111.767 77.8021L113.565 79.4658C113.565 79.4658 144.242 46.4622 151.686 38.4537Z" fill="#35302F"/>
<path d="M166.494 25.8066C166.494 25.8066 159.783 28.4562 157.067 26.4667C154.352 24.4772 157.045 17.0684 157.045 17.0684C157.045 17.0684 149.583 30.6619 151.319 32.2804C152.918 33.7079 166.494 25.8066 166.494 25.8066Z" fill="white"/>
<path fill-rule="evenodd" clip-rule="evenodd" d="M51.1404 160.27C50.7305 160.456 50.3485 160.629 49.9956 160.792C45.9871 162.647 37.0703 159.339 37.0703 159.339L34.2104 156.694C34.2104 156.694 30.2625 148.031 31.8181 143.908C31.9432 143.573 32.075 143.212 32.2158 142.826C34.2486 137.26 38.1639 126.539 50.6897 113.092C66.6882 95.8723 79.3992 88.3539 88.0819 83.2181C92.5847 80.5547 96.0042 78.5321 98.237 76.1297C102.883 71.1055 103.356 68.2118 103.699 65.3119C103.81 64.3071 104.192 63.3514 104.805 62.5479L108.97 58.0628C110.079 56.8641 111.757 58.21 111.757 58.21L119.255 65.1749L122.108 67.8235L129.576 74.7692C129.576 74.7692 131.02 76.3494 129.911 77.5481L125.775 82.0524C125.018 82.7359 124.086 83.1959 123.084 83.381C120.189 83.9357 117.368 84.6187 112.684 89.6556C110.445 92.0572 108.675 95.6217 106.343 100.319C101.856 109.355 95.2887 122.583 79.296 139.787C66.8983 153.125 56.5733 157.806 51.1404 160.27ZM39.3808 151.824C39.5273 152.144 39.7354 152.432 39.9932 152.671C40.5133 153.145 41.1997 153.394 41.9028 153.364C42.6059 153.334 43.2688 153.028 43.747 152.512L45.8866 150.259C46.126 150.001 46.3123 149.699 46.4348 149.37C46.5574 149.04 46.6138 148.69 46.6008 148.338C46.5878 147.987 46.5057 147.642 46.3592 147.322C46.2127 147.002 46.0046 146.715 45.7469 146.476C45.2259 145.994 44.5355 145.739 43.8265 145.765C43.1176 145.791 42.4479 146.097 41.9639 146.616L39.8535 148.888C39.6141 149.145 39.4277 149.447 39.3052 149.777C39.1826 150.106 39.1262 150.457 39.1392 150.808C39.1522 151.159 39.2343 151.505 39.3808 151.824Z" fill="#35302F"/>
<path d="M32.0711 157.668C31.6452 156.743 27.9729 148.479 29.4513 143.537C29.5009 143.373 29.5515 143.227 29.6089 143.077L30.043 141.925C32.2071 136.065 36.1784 125.207 48.8902 111.519C65.1172 94.0447 78.174 86.3353 86.8057 81.2257C91.0675 78.702 94.4388 76.7106 96.4579 74.5452C99.586 71.1812 100.457 69.1022 100.832 67.8322C101.086 66.9244 101.255 65.9947 101.336 65.0554C101.506 63.573 102.091 62.1685 103.021 61.0022L107.249 56.4539C108.966 54.6072 111.572 55.0029 113.25 56.3489L131.227 73.0418L131.357 73.1738C131.682 73.5177 133.257 75.373 132.588 77.6146C132.411 78.1958 132.102 78.7285 131.686 79.1713L127.521 83.6564L127.446 83.6993C126.349 84.7104 124.991 85.3947 123.525 85.6748C121.086 86.1287 118.75 86.5764 114.418 91.2393C112.415 93.3862 110.676 96.894 108.475 101.335C104.005 110.346 97.2524 123.935 81.0418 141.391C72.8748 150.205 63.0723 157.348 52.1797 162.422C51.8015 162.641 51.3387 162.791 50.9922 162.955C46.3272 165.108 39.2303 162.721 37.5897 162.11C36.6621 161.817 35.782 161.391 34.9769 160.844C34.0237 160.224 33.2108 159.411 32.5903 158.458L32.0711 157.668ZM38.3238 157.282C41.6994 158.449 46.9402 159.602 49.0178 158.646L50.1706 158.115C55.5318 155.687 65.5196 151.163 77.595 138.166C93.3241 121.187 99.9057 108.002 104.241 99.258C106.617 94.482 108.491 90.7075 110.956 88.0506C115.958 82.6766 119.203 81.7131 122.654 81.0622C123.174 80.9582 123.661 80.7326 124.076 80.4038L127.814 76.3811L110.305 60.0933L106.576 64.1014C106.372 64.3912 106.217 64.7121 106.116 65.0516C106.061 65.2317 106.023 65.4165 106.002 65.6035C105.897 66.8246 105.678 68.0333 105.349 69.2139C104.52 71.9892 102.844 74.6406 99.8939 77.7669C97.4292 80.4238 93.8012 82.5634 89.2123 85.2849C80.8063 90.2551 68.1115 97.7646 52.3466 114.729C40.2818 127.728 36.5034 138.015 34.4693 143.54L34.0082 144.706C33.2131 146.886 34.786 152.075 36.1808 155.286L38.3238 157.282Z" fill="#35302F"/>
<path d="M118.197 75.3057C117.591 74.755 120.568 71.379 121.374 72.1203C122.181 72.8616 125.668 75.9544 125.294 76.3508C124.739 76.9502 123.917 77.8032 122.968 78.8281C122.02 79.8529 115.804 81.1904 115.804 81.1904C115.804 81.1904 120.156 77.5606 120.622 77.0574C121.088 76.5542 118.8 75.867 118.197 75.3057Z" fill="white"/>
<path d="M130.806 83.7772L130.657 83.5205C126.61 77.5715 119.804 79.7901 118.731 80.1935C116.801 80.6947 114.932 81.4081 113.159 82.3205C112.862 82.4921 108.482 85.6063 107.608 86.5254C105.431 88.8085 103.261 91.6469 100.683 93.4684C96.8445 96.1798 90.9958 97.1249 88.7266 100.245C86.2151 103.695 89.5077 106.621 90.4884 107.883C93.2277 110.698 96.8363 112.508 100.731 113.02C103.73 114.891 97.8416 116.75 95.9809 119.923C91.8906 126.878 84.6292 131.881 76.934 133.73C72.0751 134.923 65.989 136.861 61.263 138.346C57.9818 139.506 54.6405 140.488 51.2537 141.288C52.5799 142.774 53.7721 143.95 54.5649 144.699C56.4955 148.745 62.4671 160.851 68.0906 167.799C70.2229 170.431 73.6815 172.397 77.0509 174.333C78.9644 175.417 80.1643 176.138 80.6506 176.497C81.5241 178.01 84.1409 182.542 86.8967 187.472C89.1196 186.548 91.3706 185.861 93.6115 185.063C92.3633 181.965 91.3802 179.326 91.5454 179.051C91.6163 178.253 93.8196 180.962 96.2189 184.026C97.1822 183.624 98.1231 183.171 99.0377 182.669C103.809 180.013 108.473 177.266 113.161 174.514C117.538 171.987 120.95 170.144 124.323 166.611C127.933 162.834 132.152 159.893 136.07 156.461C136.544 156.047 137.048 155.669 137.578 155.329L135.628 151.952L134.665 149.176L139.257 134.294C139.426 133.665 143.337 118.835 142.872 111.151C142.407 103.467 132.748 86.9697 130.806 83.7772Z" fill="#35302F"/>
<path d="M125.966 86.6884C124.74 84.8925 120.114 85.8341 118.037 86.6192C115.96 87.4043 103.721 96.686 103.721 96.686L94.2062 101.936C94.2062 101.936 92.5119 104.04 95.8278 106.773C99.1437 109.505 109.067 109.035 109.067 109.035L120.045 104.652L120.573 106.346C120.573 106.346 117.983 108.193 116.714 109.223C115.444 110.253 115.575 111.79 113.948 113.683C112.322 115.577 107.521 116.872 102.776 125.421C98.0298 133.969 103.329 150.48 103.329 150.48C103.329 150.48 93.8483 135.618 94.9639 129.579C96.0795 123.541 98.8042 120.382 100.882 118.49C102.959 116.597 108.079 112.533 108.079 112.533C105.455 112.841 102.796 112.646 100.245 111.959C100.245 111.959 99.5806 113.756 96.7093 115.927C96.6495 116.633 96.4477 117.32 96.116 117.947C95.7843 118.573 95.3296 119.126 94.7791 119.572C90.3463 123.032 84.8611 126.307 81.2761 129.395C80.3001 130.305 79.0948 130.933 77.7892 131.211C76.4837 131.489 75.1271 131.406 73.865 130.972C70.367 133.18 66.4896 134.716 62.4006 134.123C60.6839 135.924 58.78 137.537 56.7211 138.933C58.1488 140.424 59.1744 141.326 59.1744 141.326C59.1744 141.326 66.2797 156.659 72.4335 164.292C75.2146 167.721 83.9195 170.989 85.2298 173.259C85.5847 173.874 88.9268 179.662 92.3 185.505C94.6243 184.764 96.8782 183.819 99.0352 182.679C103.806 180.024 108.47 177.277 113.159 174.525C117.536 171.998 120.947 170.154 124.321 166.622C127.091 163.886 130.027 161.325 133.113 158.951L130.454 154.345L128.702 149.331L133.718 132.827C133.718 132.827 137.551 118.312 137.135 111.509C136.72 104.706 125.966 86.6884 125.966 86.6884Z" fill="white"/>
<path d="M125.189 87.1824C126.314 88.6943 126.269 88.5223 127.728 91.5797C131.354 99.2487 127.705 111.586 123.827 116.022C113.121 128.193 99.3994 126.92 105.964 138.71C106.139 140.996 99.8048 136.935 100.185 138.841C97.471 133.797 95.327 132.891 95.9241 129.683C97.0357 123.808 99.6471 120.86 101.542 119.135C103.041 117.784 106.112 115.272 107.698 113.996C108.218 113.235 108.616 112.398 108.877 111.514L108.026 111.6L107.667 111.618C107.147 111.855 120.89 103.93 120.69 103.397C118.815 98.3555 97.1272 104.609 94.8271 103.838C94.5606 104.172 94.7459 105.803 94.9734 107.788C95.5469 108.293 96.0316 108.89 96.4072 109.554C96.8926 110.479 97.1816 111.494 97.2562 112.536C97.3307 113.578 97.1892 114.624 96.8405 115.608C96.8071 116.363 96.6155 117.102 96.278 117.778C95.9405 118.454 95.4647 119.051 94.8815 119.531C90.4488 122.991 84.9636 126.266 81.3786 129.354C80.4026 130.264 79.1973 130.892 77.8917 131.17C76.5861 131.448 75.2296 131.365 73.9674 130.931C70.4627 133.143 66.5921 134.675 62.4963 134.086C60.559 136.106 58.3938 137.894 56.0442 139.414C57.2406 140.66 58.1664 141.53 58.5277 141.844C59.3696 143.646 65.9519 157.542 71.8341 164.782C73.3935 166.719 76.6057 168.539 79.4348 170.148C81.6014 171.373 84.0542 172.767 84.5534 173.632C84.9083 174.246 87.8409 179.326 91.5339 185.722C94.1615 184.912 96.7103 183.866 99.1491 182.596C103.92 179.94 108.584 177.193 113.273 174.441C117.65 171.914 121.061 170.071 124.434 166.538C127.391 163.453 130.75 160.911 134.033 158.205L131.441 153.856L129.816 149.201L134.745 132.982C134.913 132.353 138.621 118.216 138.208 111.34C137.976 107.475 134.619 100.318 131.614 94.6136C131.519 94.6682 131.368 94.8275 131.242 94.9364C131.987 93.6232 127.116 85.4664 125.189 87.1824Z" fill="#D8B8A1"/>
<path d="M78.4848 155.962C85.2587 154.014 96.4321 147.005 95.1608 144.803C93.8895 142.601 84.8595 140.844 79.7924 143.049C67.0262 148.672 74.1361 157.212 78.4848 155.962Z" fill="white"/>
<path d="M71.7626 164.814C73.322 166.751 76.5342 168.571 79.3633 170.18C81.53 171.405 83.9828 172.799 84.482 173.664C84.9811 174.528 88.058 179.858 91.4664 185.761L93.1915 185.161C89.7169 179.143 86.5635 173.588 86.076 172.743C85.3663 171.514 83.4137 170.363 80.2839 168.576C77.5993 167.046 74.5501 165.321 73.2028 163.659C67.1649 156.211 60.1387 141.031 60.0568 140.889L59.9593 140.72L59.8117 140.589C59.8117 140.589 58.8375 139.729 57.4953 138.324C56.9929 138.686 56.4827 139.035 55.9579 139.374C57.1543 140.62 58.0801 141.49 58.4414 141.804C59.2826 143.651 65.8648 157.547 71.7626 164.814Z" fill="#35302F"/>
<path d="M129.382 89.1111L127.485 86.6043C125.802 84.1265 119.651 85.0303 117.72 85.7577C117.41 85.8819 117.11 86.0307 116.824 86.2028C113.548 88.0942 104.109 95.237 103.22 95.9124L93.6072 101.21L93.4898 101.35C93.4898 101.35 91.2745 104.205 95.2275 107.48C98.7716 110.405 108.668 109.95 109.09 109.932L109.24 109.927L109.368 109.853L119.456 105.83L119.514 105.931C118.684 106.536 117.087 107.701 116.154 108.456C115.466 109.072 114.943 109.851 114.634 110.721C114.304 111.559 113.842 112.34 113.266 113.033C112.703 113.586 112.078 114.074 111.404 114.486C107.409 117.101 104.156 120.701 101.957 124.939C98.9331 130.386 96.5769 128.099 97.7158 133.8C95.0059 128.763 95.2585 132.913 95.8556 129.704C96.9671 123.83 99.8113 121.674 101.707 119.95C103.758 118.09 109.19 113.864 109.244 113.833L111.028 111.308L107.957 111.604C105.471 111.89 102.954 111.709 100.534 111.071L99.6933 110.8L99.3904 111.633L98.711 112.655L100.721 113.017C101.165 112.553 100.951 112.884 100.761 112.993C102.252 113.322 103.773 113.494 105.3 113.507C103.648 114.857 101.435 116.639 100.227 117.778C98.1434 119.674 94.6478 122.854 94.0449 129.345C93.2337 138.126 102.113 143.536 102.506 144.156L113.076 147.879C113.076 147.879 99.0493 133.894 103.549 125.793C105.631 121.811 108.708 118.434 112.48 115.99C113.28 115.502 114.014 114.912 114.663 114.235C115.355 113.409 115.912 112.479 116.315 111.48C116.514 110.877 116.858 110.332 117.317 109.893C118.543 108.897 121.092 107.073 121.089 107.066L121.625 106.685L120.631 103.404C106.239 109.768 98.856 108.086 96.4072 106.06C94.2604 104.291 94.6484 103.014 94.8478 102.61L104.218 97.4529L104.272 97.4217C104.386 97.3554 114.488 89.722 117.757 87.8346C117.953 87.7057 118.156 87.5885 118.365 87.4836C120.942 86.5182 124.472 86.191 125.197 87.1958C125.649 87.9794 135.891 105.158 136.271 111.54C136.663 118.131 132.896 132.401 132.879 132.573L127.787 149.337L129.704 154.778L132.4 159.525L134.185 157.486L131.892 153.514L130.376 149.328L134.996 133.152C135.164 132.523 139.325 117.954 138.913 111.077C138.5 104.201 129.863 89.8336 129.382 89.1111Z" fill="#35302F"/>
<path d="M78.5064 134.488L96.8248 138.06L105.421 117.805L114.421 107.655L104.561 109.296L93.3737 106.298L65.1901 132.576L63.2151 136.814L78.5064 134.488Z" fill="#35302F"/>
<path d="M94.0717 159.481C94.0717 159.481 101.44 152.355 102.939 149.742C104.439 147.129 103.438 142.807 103.438 142.807L97.7148 135.764L93.4327 137.425C93.4327 137.425 100.106 146.316 98.3162 150.907C97.0749 153.848 95.6575 156.711 94.0717 159.481Z" fill="#35302F"/>
<path d="M129.343 150.582L134.087 141.421L131.525 136.984L123.113 150.009L129.343 150.582Z" fill="#35302F"/>
<path d="M79.8496 172.988L87.2693 174.873L86.0262 170.521L86.2822 165.879L82.1471 167.312L75.7314 165.855L79.8496 172.988Z" fill="#35302F"/>
<path d="M44.9033 134.157C47.0022 136.783 49.3751 139.177 51.9817 141.3C53.0834 141.025 54.2073 140.772 55.342 140.522C59.4522 139.14 55.6795 130.078 60.0267 130.432C64.6826 130.806 69.7102 124.274 69.7102 124.274C82.1507 122.423 79.1707 117.777 82.5596 114.739C83.9762 113.075 86.4227 114.364 87.8986 112.756C89.7917 110.762 91.7667 105.884 95.3287 101.54C95.3287 101.54 96.8886 104.242 102.343 101.615C105.7 99.9741 109.707 94.887 109.941 89.8167C110.143 85.3947 105.074 77.3162 105.074 77.3162C102.555 72.8444 98.4721 62.2781 94.312 59.6275C89.0323 56.2544 84.7028 55.7281 78.3938 61.2888C76.0541 63.3511 73.0147 68.6003 73.1581 71.6876C70.7018 72.0358 68.3663 72.9733 66.3509 74.4199L66.1273 74.5941C61.2757 78.2958 59.3323 82.2457 58.5849 84.9287C56.0847 84.9808 53.6751 85.8739 51.7449 87.4638C51.2448 87.8473 50.7667 88.2587 50.3128 88.6959C46.9295 91.894 44.7912 96.1891 44.2789 100.816L44.2046 100.859C42.9511 101.201 41.7783 101.79 40.7547 102.59C36.4557 105.892 34.6647 112.554 34.3484 113.863L34.3152 114.008L34.2311 114.471C33.9131 116.915 33.7631 121.46 36.3494 124.379L44.9033 134.157Z" fill="#35302F"/>
<path d="M90.19 90.6283C88.7599 90.1481 81.9141 77.4483 81.9141 77.4483L78.9683 73.5473C78.9683 73.5473 81.0735 60.5339 90.8271 64.6833C91.8419 65.1151 99.8304 80.6674 99.8304 80.6674C99.8304 80.6674 92.8328 89.949 90.19 90.6283Z" fill="white"/>
<path d="M93.2619 80.272C90.9403 82.0537 86.792 84.6648 84.8231 82.6585C86.8783 86.2181 90.2547 91.4736 91.1978 93.3878C93.3841 97.7362 106.483 90.7232 101.742 83.3551C98.5058 77.3435 96.5739 74.3251 96.5739 74.3251C97.0216 77.2998 95.2325 78.756 93.2619 80.272Z" fill="#D8B8A1"/>
<path d="M87.2469 93.0484C87.2469 93.0484 84.2182 94.869 84.7316 96.9592C86.1105 102.467 91.3572 104.301 91.3572 104.301C91.3572 104.301 89.5796 107.462 86.6126 108.563C83.6456 109.663 82.326 109.858 79.526 108.502C76.7261 107.147 63.7401 88.1486 63.7401 88.1486C63.7401 88.1486 63.7542 83.4933 69.7919 78.9448C75.8296 74.3962 79.0712 79.7925 79.0712 79.7925L87.2469 93.0484Z" fill="white"/>
<path d="M71.7174 100.952C72.5183 100.264 66.911 94.5765 67.5539 94.0522C68.0734 93.6261 73.3876 99.3209 74.6647 98.4755C76.399 97.3301 80.6585 95.3482 82.2242 92.8501C84.6883 88.9598 81.2573 87.1041 82.5157 86.1795C83.4828 85.468 85.8972 90.1802 86.3331 89.8745L88.012 92.5796L88.4293 93.3024L88.3613 93.4497C88.3613 93.4497 93.7347 98.9662 91.797 105.281C91.0564 106.391 90.145 107.376 89.0964 108.2C88.4245 108.733 87.6781 109.164 86.8809 109.48C83.6619 110.69 82.078 110.848 79.0725 109.386C77.7983 108.707 74.7975 105.054 71.7174 100.952Z" fill="#D8B8A1"/>
<path d="M75.5752 76.3263C73.5496 75.9377 71.428 76.5683 69.2025 78.2044L68.9863 78.3292C62.8169 83.0709 62.7987 87.8906 62.7629 88.1094L62.7623 88.389L62.9026 88.6322C65.1024 91.8651 76.0875 108.614 78.9514 109.987C81.8152 111.36 83.5369 111.284 86.7598 110.081C87.5016 109.806 88.3555 108.664 89.0738 108.114C90.2977 107.19 91.3424 106.05 92.1565 104.75L92.6969 103.798L92.3537 102.33C92.3537 102.33 90.1184 100.018 90.0911 99.9711C90.9443 103.648 90.0496 105.219 88.1558 106.618L88.0005 106.708C87.4691 107.127 86.8798 107.467 86.2511 107.718C83.4145 108.779 82.3624 108.891 79.9162 107.665C78.0365 106.796 69.6546 95.226 64.6446 87.9056C64.7477 86.9455 65.4422 83.4374 70.1316 79.8294L70.3343 79.7124C72.1026 78.3763 73.7583 77.8436 75.2263 78.1398C76.4748 78.4496 77.5612 79.2176 78.2697 80.2914L84.9434 91.0551C85.3143 91.3543 90.5585 100.89 90.8515 101.288C91.4038 101.699 92.6797 105.141 93.285 105.503C93.4557 105.612 94.3975 102.033 94.5654 102.152L89.175 93.034L88.7109 92.2302L79.8442 79.3373C78.8694 77.8143 77.337 76.7335 75.5752 76.3263Z" fill="#35302F"/>
<path d="M76.8992 112.189C76.8992 112.189 78.4311 115.123 73.5175 119.014C72.5402 119.885 71.258 120.335 69.9505 120.265C68.6431 120.195 67.4163 119.611 66.5378 118.64C66.5378 118.64 54.886 106.85 53.7258 105.683C52.5528 104.714 51.2471 103.918 49.8485 103.32C49.7884 101.359 50.1463 99.4079 50.8985 97.5963C51.6507 95.7846 52.78 94.1539 54.2112 92.8124C59.1403 88.0753 62.0758 92.5046 62.0758 92.5046L76.8992 112.189Z" fill="white"/>
<path d="M70.4246 102.067L77.628 111.642L77.7021 111.771C77.784 111.913 79.5216 115.421 74.0778 119.735L73.9698 119.798C72.8118 120.789 71.3098 121.285 69.7891 121.176C68.2684 121.068 66.8516 120.365 65.8458 119.219L58.9199 112.231C59.5963 111.624 54.0242 107.978 54.7074 107.368C55.0456 107.065 60.9816 110.311 61.3266 110.004C63.1776 108.359 66.3728 105.703 68.2384 104.068C68.7299 103.64 66.1841 98.9496 66.7114 98.5371C67.2387 98.1246 69.963 102.469 70.4246 102.067Z" fill="#D8B8A1"/>
<path d="M65.971 119.67L53.1517 107.059C52.0415 105.961 50.8112 104.992 49.484 104.17L48.9887 103.951L48.9428 103.419C48.8649 101.32 49.2392 99.229 50.0402 97.2872C50.8413 95.3455 52.0504 93.5986 53.5856 92.165C55.5545 90.2717 57.5158 89.4726 59.4104 89.7747C60.7828 90.0491 62.0006 90.8323 62.8196 91.9671L78.9683 112.31L79.0463 112.445C79.1282 112.587 80.4047 115.515 74.9609 119.829L74.4471 120.234L74.0783 120.609C70.4975 123.36 67.2059 121.091 65.971 119.67ZM61.3984 93.0309L61.3711 92.9836C60.8271 92.2537 60.0329 91.7502 59.1407 91.5695C57.8862 91.3932 56.431 92.0082 54.9216 93.465C53.6552 94.6569 52.637 96.0875 51.9257 97.6744C51.2144 99.2613 50.8239 100.973 50.7767 102.712C52.0953 103.297 53.3205 104.074 54.4129 105.016L67.2133 117.953L67.2367 117.993C67.5842 118.389 68.0067 118.712 68.4797 118.943C68.9528 119.174 69.467 119.31 69.9926 119.341C70.5183 119.373 71.045 119.3 71.5422 119.126C72.0395 118.953 72.4975 118.683 72.8898 118.332L72.9776 118.281C76.8771 115.192 76.2317 112.998 76.1334 112.641L61.3984 93.0309Z" fill="#35302F"/>
<path d="M50.5818 132.121C52.8335 131.035 55.1604 130.113 57.5446 129.362C55.6479 128.558 53.858 127.522 52.2159 126.278L52.1207 126.207C49.325 124.048 46.4733 121.714 46.0224 120.839C45.0878 119.064 46.789 119.406 46.789 119.406C46.789 119.406 54.1271 125.985 59.0551 126.409C63.9831 126.833 64.246 122.656 63.47 120.672C62.694 118.689 51.2111 107.676 51.2111 107.676C50.9444 107.307 49.4629 105.272 45.6384 106.291C41.8139 107.31 39.8211 115.152 39.8211 115.152C39.8211 115.152 39.3001 119.163 40.5642 120.604C41.8283 122.045 49.2629 130.523 49.2629 130.523C49.6871 131.071 50.1355 131.613 50.5818 132.121Z" fill="white"/>
<path d="M52.1201 126.207C49.3244 124.048 46.4727 121.714 46.0218 120.839C45.7537 120.796 45.4748 120.75 45.2017 120.682C43.3511 120.202 41.5608 119.513 39.865 118.63C39.9191 119.365 40.1768 120.071 40.6093 120.668C41.8695 122.102 49.308 130.587 49.308 130.587C49.7283 131.128 50.165 131.65 50.6113 132.158C52.863 131.072 55.19 130.15 57.5741 129.399C55.6774 128.595 53.8876 127.559 52.2454 126.315L52.1201 126.207Z" fill="#D8B8A1"/>
<path d="M62.9809 126.394C61.8083 127.204 60.3719 127.537 58.9626 127.327C56.0118 127.067 52.3624 124.833 49.7166 122.903C50.608 121.686 48.2205 121.497 49.4927 122.374C48.8843 121.96 44.9356 122.016 46.9902 119.163C47.3258 118.699 51.8457 120.241 52.1908 119.763C53.3679 118.183 54.4774 116.642 54.9296 116.083C55.1203 115.883 55.4091 115.572 55.7289 115.253C55.9523 115.016 52.4059 109.84 52.6303 109.621C52.8548 109.401 56.8586 114.105 57.0136 113.953L57.9703 113.067C60.9324 116.076 63.9252 119.247 64.3094 120.349C64.9161 121.899 65.0614 124.788 62.9809 126.394Z" fill="#D8B8A1"/>
<path d="M95.9542 101.782C96.047 101.116 95.4984 100.649 95.7957 100.072C95.6234 100.055 95.3477 101.574 95.3477 101.574L94.586 102.158L93.861 102.711C93.861 102.711 92.8981 105.24 89.1558 108.211C83.7902 112.488 82.0044 112.718 81.8706 112.642L79.4011 111.204L80.5676 113.755C80.6183 113.842 81.6065 116.334 78.6636 119.816C78.3145 120.222 77.9231 120.59 77.496 120.914C74.3029 123.37 69.5979 123.051 69.5524 123.05L68.6679 122.985L68.5663 123.854C68.2118 125.569 67.2135 127.083 65.7767 128.085C65.4174 128.362 65.039 128.614 64.6443 128.838C60.3731 131.205 53.5081 126.162 52.7692 125.553L52.6741 125.482C51.3886 124.569 50.1589 123.58 48.9915 122.52C51.445 124.507 55.291 127.456 59.1302 127.789C60.5443 128.013 61.9908 127.69 63.1749 126.885C65.2486 125.283 66.0558 122.313 65.4491 120.763C64.6515 118.711 55.121 109.488 53.0594 107.509C52.0895 106.507 50.8675 105.787 49.5221 105.422C48.1767 105.058 46.7579 105.063 45.4153 105.438C44.7672 105.619 44.1611 105.926 43.6316 106.341C40.5156 108.744 39.0078 114.712 38.9461 114.963L38.931 115.062C38.874 115.509 38.4024 119.528 39.8921 121.235L48.5751 131.127C51.1959 134.368 54.2422 137.241 57.6314 139.668C58.3035 139.397 58.9611 139.117 59.6176 138.819L59.5051 138.749C55.9421 136.289 52.7441 133.339 50.0057 129.986L49.9745 129.932L41.2662 120.027C40.5982 119.26 40.5506 116.838 40.7375 115.352C40.8764 114.813 42.2409 109.72 44.7496 107.794C45.0878 107.523 45.4756 107.321 45.8914 107.198C48.713 106.47 49.9793 107.54 50.4786 108.233L50.5215 108.307L50.5605 108.375C55.2541 112.87 62.0955 119.79 62.5751 121.027C62.9958 122.098 63.049 124.031 61.8361 124.957C61.0245 125.476 60.0494 125.676 59.0989 125.519C54.5666 125.11 47.4424 118.776 47.3956 118.695L47.2179 118.527L46.9738 118.479C46.6966 118.416 46.4093 118.41 46.1299 118.463C45.8505 118.516 45.5849 118.626 45.35 118.786C44.9663 119.089 44.4219 119.799 45.18 121.253C45.5154 121.834 46.4881 123.019 51.5341 126.924L51.6477 127.011L52.0903 127.341C54.2168 128.887 60.8227 133.107 65.5104 130.4C65.982 130.138 66.4337 129.841 66.8618 129.512C68.4222 128.358 69.5816 126.744 70.1769 124.896C71.7962 124.862 75.6503 124.627 78.6169 122.356C79.1352 121.956 79.6104 121.504 80.0349 121.006C82.2214 118.429 82.6447 116.167 82.5687 114.725C84.3889 115.07 87.6127 114.929 91.7618 111.633C93.7766 110.037 94.0199 109.725 93.1776 104.367C93.0123 101.553 95.9011 102.236 95.9542 101.782Z" fill="#35302F"/>
<path d="M97.0684 112.135C99.5613 110.354 89.2955 104.366 91.838 102.655C95.8321 99.9794 111.526 94.6381 115.505 91.9987C121.039 88.3259 127.665 91.5343 133.196 87.8548C132.108 85.9703 131.246 84.4775 130.833 83.7616L130.688 83.5116C126.637 77.5559 117.134 80.8903 116.068 81.2898C115.513 81.5123 114.976 81.777 114.462 82.0815L113.436 82.6743C113.151 82.8835 109.086 86.5904 108.204 87.4959C106.028 89.779 103.268 91.5975 100.69 93.419C96.8521 96.1303 91.0034 97.0754 88.7342 100.196C86.2227 103.645 89.5152 106.571 90.496 107.833C92.3247 109.756 94.5745 111.229 97.0684 112.135Z" fill="#35302F"/>
<path d="M99.0224 107.252C94.8061 105.003 104.965 102.803 110.423 101.696C115.147 100.77 112.748 101.777 116.754 99.122C120.76 96.467 124.55 93.72 128.479 91.0557C127.015 88.4424 125.959 86.6923 125.959 86.6923C124.734 84.8964 120.108 85.838 118.03 86.6231C115.953 87.4082 103.714 96.6899 103.714 96.6899L94.1994 101.94C94.1994 101.94 92.5052 104.044 95.8211 106.776C97.1435 107.85 96.6422 106.951 99.0224 107.252Z" fill="white"/>
<path d="M100.798 109.486L103.057 107.939C100.4 107.672 97.7155 107.142 96.4067 106.06C94.2598 104.291 94.6479 103.014 94.8473 102.61L104.217 97.4529L104.271 97.4217C104.386 97.3554 114.487 89.722 117.757 87.8346C117.952 87.7057 118.155 87.5885 118.365 87.4836C120.941 86.5183 124.472 86.191 125.196 87.1958C125.333 87.4323 126.331 89.1614 127.735 91.5931L129.248 90.5483C127.89 88.1174 126.881 86.4483 126.756 86.2321L126.729 86.1848C125.046 83.7071 119.658 85.0438 117.727 85.7712C117.417 85.8954 117.118 86.0442 116.831 86.2163C113.555 88.1077 104.116 95.2506 103.227 95.9259L93.6066 101.21L93.4892 101.35C93.4892 101.35 91.274 104.205 95.2269 107.48C96.5202 108.534 98.6105 109.128 100.798 109.486Z" fill="#35302F"/>
<path d="M117.93 83.3131C119.388 85.8393 109.675 88.0786 109.675 88.0786L100.316 71.8677C100.316 71.8677 91.0727 56.7156 95.342 60.4288C99.6113 64.1421 109.52 79.7295 109.52 79.7295C109.52 79.7295 116.432 80.8277 117.93 83.3131Z" fill="#35302F"/>
<path d="M76.7485 162.719C76.4455 162.678 76.4286 162.571 76.7485 162.719C79.7483 164.202 83.5354 163.898 86.5457 162.529C86.7213 162.428 86.7351 162.483 86.5457 162.529C85.0218 162.82 83.4707 162.942 81.9201 162.894" fill="#35302F"/>
<path d="M121.707 146.012C121.129 146.742 121.059 146.683 121.707 146.012C127.555 139.934 131.289 132.284 131.383 123.773C131.383 123.773 129.168 131.293 128.875 132.174" fill="#35302F"/>
<path d="M92.9218 176.473C93.3858 177.277 94.1598 177.947 93.6958 177.143L92.8292 173.708C91.8259 171.817 90.5764 170.067 89.1134 168.504C88.7545 167.649 88.7623 167.662 89.1134 168.504" fill="#35302F"/>
<path d="M118.782 176.979C99.8218 187.926 84.3562 189.326 83.7064 189.386L82.6679 182.33L83.1837 185.86L82.6572 182.327C82.8032 182.315 97.4894 180.969 115.186 170.752C132.681 160.651 138.796 150.186 138.86 150.077L144.736 154.015C144.48 154.46 137.884 165.951 118.782 176.979Z" fill="#35302F"/>
<path d="M101.405 207.095L94.4319 204.376C91.3261 203.177 88.7247 200.951 87.0611 198.067L80.373 186.483L87.2222 182.529L101.405 207.095Z" fill="#35302F"/>
<path d="M151.254 178.315L137.07 153.749L143.622 149.966L154.038 168.007C154.533 168.867 154.854 169.815 154.982 170.799C155.11 171.782 155.043 172.781 154.784 173.739C154.525 174.696 154.08 175.593 153.475 176.378C152.869 177.164 152.114 177.822 151.254 178.315Z" fill="#35302F"/>
<path d="M94.0196 102.206C90.8751 105.822 87.8663 109.487 84.3269 112.809C79.8644 116.998 74.9278 122.018 69.657 125.196C66.3187 127.214 61.4974 128.8 57.5578 127.436C54.8245 126.492 52.9951 125.18 50.6252 123.711C49.9539 123.292 49.3265 122.806 48.7526 122.262L43.1788 128.019C44.4622 129.429 45.6716 130.904 46.8021 132.439C45.8221 131.131 50.2527 135.436 48.5259 134.145C50.0944 135.302 51.8957 136.379 53.1543 137.903C55.8397 141.135 58.3142 144.345 60.7281 147.652C62.2976 149.835 63.3237 152.361 63.7212 155.02C74.2275 142.893 87.5463 127.558 99.7334 113.569C99.4785 113.455 99.2314 113.354 98.9754 113.223C94.3516 110.939 93.0486 106.405 94.0196 102.206Z" fill="#35302F"/>
<path d="M48.5685 157.383C48.5685 157.383 54.7673 156.858 66.3113 144.438C72.3702 137.914 78.9187 130.397 92.6606 108.961C93.2197 108.089 92.2539 108.007 94.0637 109.052C94.7301 109.442 94.6695 109.306 95.3454 109.681L95.4793 109.757C87.4417 120.981 81.3154 129.733 72.7368 139.188C54.2987 159.509 48.5685 157.383 48.5685 157.383Z" fill="white"/>
<path d="M143.839 166.673C125.016 184.565 102.309 190.083 102.309 190.083C102.309 190.083 130.212 177.575 140.563 162.746C145.15 156.153 150.586 160.265 143.839 166.673Z" fill="#35302F"/>
<path d="M147.423 172.88C128.601 190.772 105.898 196.297 105.898 196.297C105.898 196.297 133.8 183.79 144.151 168.961C148.739 162.367 154.171 166.472 147.423 172.88Z" fill="#35302F"/>
<path d="M151.538 178.79C132.711 196.676 110.008 202.2 110.008 202.2C110.008 202.2 137.911 189.693 148.262 174.864C152.849 168.271 158.281 172.375 151.538 178.79Z" fill="#35302F"/>
<path d="M11.5593 331.641C10.4019 331.641 9.35361 331.39 8.41455 330.888C7.48642 330.375 6.75482 329.671 6.21978 328.775C5.69566 327.88 5.43359 326.87 5.43359 325.745C5.43359 324.62 5.70112 323.61 6.23616 322.715C6.7712 321.82 7.50279 321.121 8.43093 320.618C9.36999 320.105 10.4182 319.849 11.5757 319.849C12.5147 319.849 13.3719 320.012 14.1472 320.34C14.9224 320.668 15.5776 321.143 16.1126 321.765L14.7368 323.059C13.9069 322.164 12.886 321.716 11.674 321.716C10.8878 321.716 10.1835 321.891 9.56108 322.24C8.93868 322.578 8.45277 323.053 8.10335 323.665C7.75394 324.276 7.57923 324.97 7.57923 325.745C7.57923 326.52 7.75394 327.214 8.10335 327.825C8.45277 328.437 8.93868 328.917 9.56108 329.266C10.1835 329.605 10.8878 329.774 11.674 329.774C12.886 329.774 13.9069 329.321 14.7368 328.415L16.1126 329.725C15.5776 330.348 14.917 330.822 14.1308 331.15C13.3555 331.478 12.4984 331.641 11.5593 331.641Z" fill="#35302F"/>
<path d="M28.1626 329.692V331.478H19.5637V320.012H27.9333V321.798H21.693V324.779H27.229V326.531H21.693V329.692H28.1626Z" fill="#35302F"/>
<path d="M36.7275 320.012C37.7212 320.012 38.5838 320.176 39.3154 320.504C40.0579 320.831 40.6257 321.301 41.0188 321.912C41.4119 322.524 41.6084 323.25 41.6084 324.091C41.6084 324.921 41.4119 325.647 41.0188 326.269C40.6257 326.881 40.0579 327.35 39.3154 327.678C38.5838 328.005 37.7212 328.169 36.7275 328.169H34.1397V331.478H32.0104V320.012H36.7275ZM36.6292 326.367C37.5574 326.367 38.2617 326.171 38.7421 325.778C39.2226 325.385 39.4628 324.822 39.4628 324.091C39.4628 323.359 39.2226 322.797 38.7421 322.404C38.2617 322.011 37.5574 321.814 36.6292 321.814H34.1397V326.367H36.6292Z" fill="#35302F"/>
<path d="M52.6475 325.516C53.3791 325.712 53.936 326.051 54.3182 326.531C54.7004 327.001 54.8915 327.59 54.8915 328.3C54.8915 329.305 54.5202 330.085 53.7777 330.642C53.0352 331.199 51.9596 331.478 50.551 331.478H45.1133V320.012H50.2398C51.5283 320.012 52.5329 320.269 53.2536 320.782C53.9742 321.295 54.3346 322.022 54.3346 322.961C54.3346 323.561 54.1872 324.08 53.8923 324.517C53.6084 324.953 53.1935 325.286 52.6475 325.516ZM47.2098 324.91H50.0597C50.7476 324.91 51.2717 324.773 51.6321 324.5C51.9924 324.227 52.1726 323.823 52.1726 323.288C52.1726 322.753 51.9924 322.349 51.6321 322.076C51.2717 321.792 50.7476 321.65 50.0597 321.65H47.2098V324.91ZM50.4855 329.84C51.9924 329.84 52.7458 329.272 52.7458 328.136C52.7458 327.023 51.9924 326.466 50.4855 326.466H47.2098V329.84H50.4855Z" fill="#35302F"/>
<path d="M58.8075 320.012H60.904V328.153L67.0625 320.012H69.0444V331.478H66.9479V323.354L60.7894 331.478H58.8075V320.012Z" fill="#35302F"/>
<path d="M79.0071 331.641C77.8496 331.641 76.8014 331.39 75.8623 330.888C74.9342 330.375 74.2026 329.671 73.6675 328.775C73.1434 327.88 72.8814 326.87 72.8814 325.745C72.8814 324.62 73.1489 323.61 73.6839 322.715C74.219 321.82 74.9506 321.121 75.8787 320.618C76.8178 320.105 77.866 319.849 79.0235 319.849C79.9625 319.849 80.8197 320.012 81.5949 320.34C82.3702 320.668 83.0254 321.143 83.5604 321.765L82.1846 323.059C81.3547 322.164 80.3338 321.716 79.1217 321.716C78.3355 321.716 77.6312 321.891 77.0089 322.24C76.3865 322.578 75.9005 323.053 75.5511 323.665C75.2017 324.276 75.027 324.97 75.027 325.745C75.027 326.52 75.2017 327.214 75.5511 327.825C75.9005 328.437 76.3865 328.917 77.0089 329.266C77.6312 329.605 78.3355 329.774 79.1217 329.774C80.3338 329.774 81.3547 329.321 82.1846 328.415L83.5604 329.725C83.0254 330.348 82.3647 330.822 81.5786 331.15C80.8033 331.478 79.9461 331.641 79.0071 331.641Z" fill="#35302F"/>
<path d="M97.1992 320.012V331.478H95.0699V326.564H89.1407V331.478H87.0115V320.012H89.1407V324.746H95.0699V320.012H97.1992Z" fill="#35302F"/>
<path d="M107.18 323.894C108.556 323.894 109.609 324.205 110.341 324.828C111.083 325.439 111.455 326.351 111.455 327.563C111.455 328.83 111.051 329.802 110.243 330.479C109.435 331.145 108.299 331.478 106.836 331.478H101.906V320.012H104.002V323.894H107.18ZM106.738 329.84C107.567 329.84 108.206 329.649 108.654 329.266C109.102 328.884 109.325 328.327 109.325 327.596C109.325 326.209 108.463 325.516 106.738 325.516H104.002V329.84H106.738ZM113.109 320.012H115.205V331.478H113.109V320.012Z" fill="#35302F"/>
<path d="M119.919 320.012H122.015V328.153L128.174 320.012H130.156V331.478H128.059V323.354L121.901 331.478H119.919V320.012ZM125.013 319.243C124.03 319.243 123.287 319.041 122.785 318.637C122.294 318.233 122.043 317.643 122.032 316.868H123.522C123.533 317.272 123.664 317.583 123.915 317.801C124.166 318.02 124.532 318.129 125.013 318.129C125.482 318.129 125.848 318.02 126.11 317.801C126.383 317.583 126.525 317.272 126.536 316.868H128.01C127.999 317.632 127.737 318.222 127.224 318.637C126.721 319.041 125.984 319.243 125.013 319.243Z" fill="#35302F"/>
<path d="M152.556 329.676V334H150.59V331.478H140.861V320.012H142.958V329.676H148.74V320.012H150.852V329.676H152.556Z" fill="#35302F"/>
<path d="M164.578 329.692V331.478H155.979V320.012H164.348V321.798H158.108V324.779H163.644V326.531H158.108V329.692H164.578Z" fill="#35302F"/>
<path d="M178.613 320.012V331.478H176.484V326.564H170.555V331.478H168.425V320.012H170.555V324.746H176.484V320.012H178.613Z" fill="#35302F"/>
<path d="M191.624 321.814H187.824V331.478H185.711V321.814H181.928V320.012H191.624V321.814Z" fill="#35302F"/>
<path d="M199.651 320.012C200.645 320.012 201.508 320.176 202.239 320.504C202.982 320.831 203.55 321.301 203.943 321.912C204.336 322.524 204.532 323.25 204.532 324.091C204.532 324.921 204.336 325.647 203.943 326.269C203.55 326.881 202.982 327.35 202.239 327.678C201.508 328.005 200.645 328.169 199.651 328.169H197.064V331.478H194.934V320.012H199.651ZM199.553 326.367C200.481 326.367 201.186 326.171 201.666 325.778C202.146 325.385 202.387 324.822 202.387 324.091C202.387 323.359 202.146 322.797 201.666 322.404C201.186 322.011 200.481 321.814 199.553 321.814H197.064V326.367H199.553Z" fill="#35302F"/>
<path d="M56.5004 253.467V305.247H42.1499L22.4734 281.724V305.247H5.45996V253.467H19.8105L39.4869 276.99V253.467H56.5004Z" fill="#35302F"/>
<path d="M128.556 306.431C123.082 306.431 118.151 305.297 113.762 303.028C109.373 300.71 105.921 297.505 103.406 293.412C100.94 289.269 99.707 284.585 99.707 279.357C99.707 274.13 100.94 269.47 103.406 265.377C105.921 261.234 109.373 258.029 113.762 255.76C118.151 253.442 123.082 252.284 128.556 252.284C133.586 252.284 138.074 253.171 142.019 254.947C145.964 256.722 149.219 259.286 151.783 262.64L140.761 272.478C137.556 268.434 133.783 266.412 129.444 266.412C125.794 266.412 122.86 267.596 120.641 269.963C118.422 272.281 117.312 275.412 117.312 279.357C117.312 283.302 118.422 286.458 120.641 288.826C122.86 291.143 125.794 292.302 129.444 292.302C133.783 292.302 137.556 290.28 140.761 286.237L151.783 296.075C149.219 299.428 145.964 301.993 142.019 303.768C138.074 305.543 133.586 306.431 128.556 306.431Z" fill="#35302F"/>
<path d="M205.127 292.08V305.247H162.075V253.467H204.165V266.634H179.237V272.7H198.012V285.275H179.237V292.08H205.127Z" fill="#35302F"/>
<path fill-rule="evenodd" clip-rule="evenodd" d="M84.3041 305.247H75.3347C75.1557 304.936 74.6637 303.11 74.1299 301.13C73.5002 298.793 72.8124 296.241 72.5118 295.705L70.8073 295.713L68.9243 293.854L81.9531 289.193L71.6806 289.945C71.6709 289.866 71.6611 289.747 71.6497 289.605C71.6054 289.062 71.5347 288.192 71.3323 288.045L68.913 286.147L82.5112 281.364C82.5249 281.319 82.5537 281.3 82.5825 281.282C82.5977 281.272 82.6128 281.262 82.6257 281.249L74.3951 281.883C73.9284 281.894 73.5489 281.961 73.1705 282.028C72.712 282.108 72.2553 282.189 71.6475 282.169L71.6642 280.376L68.7959 278.387L82.5261 273.55L71.627 274.276L71.5535 272.485L68.874 270.373L81.546 266.234L71.3396 266.312L71.3396 258.454L87.129 253.191L87.1383 264.198C87.4139 264.439 87.9215 264.812 88.4736 265.217C89.4111 265.905 90.477 266.687 90.7535 267.08C89.3726 268.222 88.0993 269.284 87.1111 270.184C87.1149 270.781 87.0917 271.176 87.0762 271.44C87.0573 271.762 87.0499 271.888 87.1178 271.945C87.8732 272.579 88.5761 273.122 89.3089 273.688C89.7803 274.052 90.2642 274.426 90.7824 274.84C89.3332 276.1 88.4276 276.851 87.1211 277.793L87.1392 279.717C87.3415 280.018 88.3537 280.778 89.2855 281.478C89.8738 281.919 90.4301 282.337 90.7302 282.6C90.2152 283.011 89.7988 283.337 89.4438 283.615C88.432 284.408 87.9195 284.809 87.0494 285.663C87.0494 285.663 87.0035 286.921 86.9951 287.735C87.9177 288.309 88.5664 288.771 89.2461 289.255C89.7171 289.59 90.203 289.936 90.8053 290.337C89.7206 291.345 88.8233 292.037 87.8359 292.798C87.6057 292.975 87.3706 293.156 87.1271 293.346L84.3041 305.247ZM87.1247 248.123L71.3396 253.385L71.3397 245.351H63.1758C63.1759 237.264 69.4404 230.865 77.0812 230.865V237.129H81.8526V230.865C90.1919 230.865 95.2819 237.191 95.2819 245.351H87.1223L87.1247 248.123Z" fill="#35302F"/>
</svg>
