<svg width="14" height="14" viewBox="0 0 14 14" fill="none" xmlns="http://www.w3.org/2000/svg">
<path fill-rule="evenodd" clip-rule="evenodd" d="M7 14C3.13401 14 0 10.866 0 7C0 3.13401 3.13401 0 7 0C10.866 0 14 3.13401 14 7C14 10.866 10.866 14 7 14ZM11.7088 10.2611C12.3509 9.33559 12.7272 8.21175 12.7272 7.00001C12.7272 3.83693 10.163 1.27274 6.99996 1.27274C3.83688 1.27274 1.27269 3.83693 1.27269 7.00001C1.27269 8.21183 1.64905 9.33574 2.29125 10.2612C3.0065 9.31635 4.68617 8.91011 6.9914 8.90909C5.57062 8.90503 4.45462 7.90391 4.45462 5.72728C4.45462 4.29913 5.4595 3.18183 7.00007 3.18183C8.53638 3.18183 9.54553 4.40465 9.54553 5.85455C9.54553 7.93633 8.41728 8.90423 7.01072 8.90908C9.31481 8.91033 10.9937 9.31656 11.7088 10.2611ZM10.7958 11.2889C10.6094 10.6192 9.27143 10.1818 7.0001 10.1818C4.72855 10.1818 3.3905 10.6193 3.20436 11.289C4.21488 12.184 5.54397 12.7273 6.99996 12.7273C8.45606 12.7273 9.78523 12.1839 10.7958 11.2889ZM5.72731 5.7273C5.72731 7.17137 6.24799 7.63639 7.00004 7.63639C7.74949 7.63639 8.27276 7.18991 8.27276 5.85457C8.27276 5.05938 7.77364 4.45457 7.00004 4.45457C6.19423 4.45457 5.72731 4.97373 5.72731 5.7273Z" fill="#35302F"/>
</svg>
