<svg width="13" height="13" viewBox="0 0 13 13" fill="none" xmlns="http://www.w3.org/2000/svg">
<path fill-rule="evenodd" clip-rule="evenodd" d="M5.63907 4.03383C5.96877 3.58952 6.087 3.12125 5.71412 2.70791C4.87733 1.53701 4.31456 0.812935 3.96157 0.464236C3.29049 -0.198685 2.18654 -0.109015 1.60534 0.46367C1.29317 0.771264 1.18748 0.876893 0.86695 1.20246C-0.918464 2.98884 0.170373 6.76517 3.0649 9.66254C5.95877 12.5593 9.73474 13.6487 11.5239 11.8585C11.8197 11.5734 12.0701 11.3228 12.2676 11.1141C12.8372 10.5121 12.9237 9.4568 12.2639 8.77125C11.9256 8.41978 11.2351 7.88419 10.015 7.0114C9.64127 6.67724 9.19818 6.74966 8.79195 7.01617C8.59654 7.14437 8.45434 7.27406 8.18582 7.54284L7.69821 8.03072C7.63399 8.09498 6.76191 7.65825 5.91538 6.81088C5.06838 5.96305 4.63195 5.09093 4.69587 5.02701L5.18382 4.5388C5.26901 4.45352 5.30974 4.41224 5.36198 4.35734C5.4708 4.24297 5.5609 4.13917 5.63907 4.03383ZM8.59767 8.93064L9.08538 8.44267C9.23316 8.29474 9.32893 8.20379 9.40685 8.14108C10.4757 8.90866 11.0948 9.39131 11.3476 9.65404C11.4994 9.81177 11.4758 10.0996 11.3439 10.2391C11.1612 10.4321 10.9239 10.6695 10.6328 10.9504C9.47583 12.1078 6.42777 11.2284 3.96456 8.76275C1.50057 6.29634 0.621581 3.24782 1.76978 2.09899C2.08902 1.77476 2.19017 1.67367 2.49788 1.37046C2.61326 1.25678 2.92753 1.23125 3.06788 1.3699C3.33965 1.63836 3.84378 2.28386 4.58538 3.31689C4.54699 3.36456 4.49904 3.41842 4.44068 3.47975C4.39786 3.52476 4.36217 3.56093 4.28417 3.63901L3.7967 4.12675C2.96743 4.95595 3.67367 6.36723 5.01573 7.71061C6.35687 9.05307 7.76867 9.7601 8.59767 8.93064Z" fill="#35302F"/>
</svg>
