<svg width="14" height="15" viewBox="0 0 14 15" fill="none" xmlns="http://www.w3.org/2000/svg">
<path fill-rule="evenodd" clip-rule="evenodd" d="M6.28553 2.9787C6.6957 3.43337 6.56565 3.94847 6.20298 4.43721C6.11699 4.55309 6.01788 4.66726 5.89817 4.79307C5.84072 4.85346 5.79591 4.89887 5.7022 4.99268L5.16546 5.52972C5.09515 5.60003 5.57522 6.55936 6.50692 7.49197C7.43811 8.42407 8.39738 8.90448 8.46803 8.83379L9.0044 8.29713C9.29977 8.00146 9.4562 7.85881 9.67115 7.71779C10.118 7.42463 10.6054 7.34496 11.0165 7.71254C12.3586 8.67261 13.1182 9.26176 13.4903 9.64838C14.216 10.4025 14.1209 11.5633 13.4944 12.2255C13.2771 12.4551 13.0017 12.7307 12.6763 13.0444C10.7082 15.0135 6.55465 13.8152 3.37139 10.6288C0.187411 7.44168 -1.01031 3.28772 0.953645 1.32271C1.30623 0.964582 1.42248 0.848391 1.76587 0.510037C2.4052 -0.119916 3.61954 -0.218554 4.35773 0.51066C4.74602 0.894229 5.36506 1.69072 6.28553 2.9787ZM9.99392 9.28721L9.45745 9.82398C8.54555 10.7364 6.99257 9.95865 5.51731 8.48194C4.04104 7.00423 3.26418 5.45182 4.17638 4.5397L4.7126 4.00319C4.7984 3.9173 4.83765 3.87751 4.88476 3.828C4.94895 3.76054 5.0017 3.70129 5.04393 3.64886C4.22817 2.51252 3.67363 1.80247 3.37468 1.50716C3.22029 1.35465 2.87459 1.38273 2.74768 1.50778C2.40919 1.84131 2.29793 1.95251 1.94677 2.30917C0.683748 3.57288 1.65063 6.92625 4.36102 9.6393C7.07056 12.3515 10.4234 13.3188 11.6961 12.0457C12.0163 11.7367 12.2774 11.4756 12.4782 11.2633C12.6234 11.1098 12.6494 10.7932 12.4824 10.6197C12.2042 10.3307 11.5233 9.7998 10.3475 8.95546C10.2618 9.02444 10.1565 9.12449 9.99392 9.28721ZM12.8084 0.205602L9.80337 3.21063L8.19834 1.6056L7.20839 2.59555L9.80337 5.19053L13.7983 1.19555L12.8084 0.205602Z" fill="white"/>
</svg>
