<svg width="21" height="21" viewBox="0 0 21 21" fill="none" xmlns="http://www.w3.org/2000/svg">
<rect width="21" height="21" rx="5" fill="#5888EA"/>
<path d="M15.902 13.3516C15.8724 13.3043 15.6895 12.9244 14.8094 12.1435C13.8881 11.3259 14.0119 11.4587 15.1216 10.0449C15.7974 9.18382 16.0677 8.65799 15.9831 8.4332C15.9026 8.21893 15.4055 8.27546 15.4055 8.27546L13.7527 8.28466C13.7527 8.28466 13.6303 8.26888 13.5388 8.32081C13.4501 8.37208 13.3931 8.49039 13.3931 8.49039C13.3931 8.49039 13.1311 9.15687 12.7819 9.72344C12.0455 10.919 11.7505 10.9821 11.6302 10.9079C11.3504 10.735 11.4205 10.2125 11.4205 9.84175C11.4205 8.68297 11.6041 8.19987 11.0623 8.07499C10.8821 8.03358 10.7501 8.00597 10.2902 8.00137C9.70025 7.99545 9.2004 8.00334 8.91782 8.13546C8.72943 8.22353 8.58435 8.42006 8.67305 8.43123C8.78237 8.44503 9.02989 8.49499 9.16121 8.66588C9.33103 8.88607 9.32485 9.38166 9.32485 9.38166C9.32485 9.38166 9.42248 10.7455 9.09727 10.9151C8.87381 11.0314 8.56785 10.7941 7.91124 9.70898C7.57503 9.15358 7.32064 8.53902 7.32064 8.53902C7.32064 8.53902 7.27182 8.42466 7.1845 8.36353C7.07862 8.28926 6.93011 8.2656 6.93011 8.2656L5.35837 8.2748C5.35837 8.2748 5.12254 8.28137 5.03591 8.37931C4.9589 8.46672 5.02972 8.64682 5.02972 8.64682C5.02972 8.64682 6.26043 11.3988 7.65341 12.7864C8.93157 14.0582 10.3823 13.9747 10.3823 13.9747H11.0396C11.0396 13.9747 11.2383 13.9537 11.3394 13.8492C11.4329 13.7532 11.4294 13.5731 11.4294 13.5731C11.4294 13.5731 11.4164 12.7298 11.8262 12.6056C12.2297 12.4834 12.7482 13.4206 13.2975 13.7815C13.7128 14.0543 14.0284 13.9944 14.0284 13.9944L15.4977 13.9747C15.4977 13.9747 16.2664 13.9294 15.902 13.3516Z" fill="white"/>
</svg>
