<svg width="21" height="22" viewBox="0 0 21 22" fill="none" xmlns="http://www.w3.org/2000/svg">
<rect y="0.728516" width="21" height="21" rx="5" fill="#35302F"/>
<path d="M15.902 14.0801C15.8724 14.0328 15.6895 13.6529 14.8094 12.8721C13.8881 12.0544 14.0119 12.1872 15.1216 10.7734C15.7974 9.91233 16.0677 9.38651 15.9831 9.16172C15.9026 8.94745 15.4055 9.00397 15.4055 9.00397L13.7527 9.01317C13.7527 9.01317 13.6303 8.9974 13.5388 9.04932C13.4501 9.10059 13.3931 9.2189 13.3931 9.2189C13.3931 9.2189 13.1311 9.88538 12.7819 10.452C12.0455 11.6475 11.7505 11.7106 11.6302 11.6364C11.3504 11.4635 11.4205 10.941 11.4205 10.5703C11.4205 9.41148 11.6041 8.92838 11.0623 8.8035C10.8821 8.76209 10.7501 8.73449 10.2902 8.72989C9.70025 8.72397 9.2004 8.73186 8.91782 8.86397C8.72943 8.95205 8.58435 9.14857 8.67305 9.15975C8.78237 9.17355 9.02989 9.2235 9.16121 9.3944C9.33103 9.61458 9.32485 10.1102 9.32485 10.1102C9.32485 10.1102 9.42248 11.474 9.09727 11.6436C8.87381 11.7599 8.56785 11.5227 7.91124 10.4375C7.57503 9.8821 7.32064 9.26754 7.32064 9.26754C7.32064 9.26754 7.27182 9.15317 7.1845 9.09205C7.07862 9.01777 6.93011 8.99411 6.93011 8.99411L5.35837 9.00331C5.35837 9.00331 5.12254 9.00989 5.03591 9.10782C4.9589 9.19524 5.02972 9.37533 5.02972 9.37533C5.02972 9.37533 6.26043 12.1274 7.65341 13.5149C8.93157 14.7867 10.3823 14.7032 10.3823 14.7032H11.0396C11.0396 14.7032 11.2383 14.6822 11.3394 14.5777C11.4329 14.4817 11.4294 14.3016 11.4294 14.3016C11.4294 14.3016 11.4164 13.4584 11.8262 13.3341C12.2297 13.2119 12.7482 14.1492 13.2975 14.51C13.7128 14.7828 14.0284 14.723 14.0284 14.723L15.4977 14.7032C15.4977 14.7032 16.2664 14.6579 15.902 14.0801Z" fill="white"/>
</svg>
