<svg width="170" height="70" viewBox="0 0 170 70" fill="none" xmlns="http://www.w3.org/2000/svg">
<path d="M46.5545 55.686C46.4905 55.6559 40.0328 52.6772 30.175 52.6772C20.4339 52.6772 15.3564 55.5732 15.3075 55.6033L13.9159 57.0776C13.9159 57.0776 13.2089 56.3668 13.2089 54.6969C13.2089 53.027 13.7843 52.5568 13.7843 52.5568C14.0137 52.4177 19.5425 49.2095 30.175 49.2095C40.7361 49.2095 47.5323 52.3537 47.8182 52.4854C48.2211 53.1551 48.4319 53.9228 48.4275 54.7044C48.4069 55.5583 48.1798 56.3945 47.7655 57.1416L46.5545 55.686Z" fill="#35302F"/>
<path d="M78.6965 10.0716C83.7363 8.522 87.2416 9.83085 88.4753 9.20652L98.4872 3.97864L98.1374 2.85032L97.656 1.21426L97.3063 0.0859375L86.087 1.39103C84.7029 1.57532 82.5403 4.6293 77.5005 6.17886L51.6921 14.1373L52.0419 15.2656L52.5383 16.8791L52.8881 18.0074C52.8881 18.0074 73.6567 11.6211 78.6965 10.0716Z" fill="#35302F"/>
<path d="M87.9299 8.36005C87.9299 8.36005 84.4885 7.84855 83.8341 6.36293C83.1797 4.87731 86.0908 2.43262 86.0908 2.43262C86.0908 2.43262 79.6969 6.31027 80.0317 7.40474C80.3551 8.38638 87.9299 8.36005 87.9299 8.36005Z" fill="white"/>
<path fill-rule="evenodd" clip-rule="evenodd" d="M7.33637 36.7018C7.12041 36.6806 6.91912 36.6608 6.73234 36.6439C4.6111 36.4521 1.68499 32.9205 1.68499 32.9205L1.12836 31.1265C1.12836 31.1265 1.5684 26.5568 3.21199 25.2103C3.34506 25.1004 3.48715 24.9814 3.63897 24.8543C5.82996 23.0199 10.05 19.4866 18.5233 16.8908C29.3562 13.5572 36.4773 13.4822 41.3416 13.4309C43.8642 13.4043 45.7799 13.3841 47.2916 12.9192C50.4434 11.9413 51.3386 10.8468 52.181 9.7185C52.4693 9.32545 52.8595 9.01855 53.3093 8.83089L56.1301 7.96208C56.8824 7.72889 57.2585 8.69549 57.2585 8.69549L58.7102 13.4119L59.2631 15.2059L60.7074 19.9072C60.7074 19.9072 60.9293 20.9152 60.177 21.1484L57.3638 22.0322C56.8829 22.1352 56.3829 22.1027 55.9195 21.9382C54.5768 21.4718 53.2341 21.0769 50.0635 22.051C48.5495 22.5141 46.9509 23.576 44.8445 24.9753C40.7921 27.6673 34.86 31.608 24.0332 34.9364C15.6398 37.5174 10.1992 36.983 7.33637 36.7018ZM4.46169 30.3393C4.44583 30.508 4.46339 30.6783 4.51338 30.8403C4.61629 31.1637 4.84283 31.4333 5.14364 31.5904C5.44446 31.7475 5.79516 31.7794 6.11935 31.679L7.55608 31.254C7.71814 31.2042 7.86879 31.123 7.99942 31.0149C8.13006 30.9068 8.23811 30.7741 8.3174 30.6242C8.39669 30.4744 8.44567 30.3104 8.46153 30.1416C8.47739 29.9728 8.45983 29.8025 8.40984 29.6405C8.30841 29.3138 8.08171 29.0406 7.77933 28.8806C7.47696 28.7206 7.12352 28.6869 6.79635 28.7868L5.36714 29.2268C5.20508 29.2766 5.05443 29.3579 4.9238 29.4659C4.79317 29.574 4.68511 29.7067 4.60582 29.8566C4.52653 30.0064 4.47755 30.1705 4.46169 30.3393Z" fill="#35302F"/>
<path d="M0 31.0166C0.0451328 30.5277 0.503983 26.1912 2.31305 24.4837C2.37323 24.4273 2.42965 24.3784 2.48982 24.3295L2.94867 23.9534C5.26549 22.0277 9.54182 18.4509 18.1509 15.7994C29.1407 12.4144 36.4522 12.343 41.289 12.2903C43.6772 12.264 45.5653 12.2452 46.9305 11.8277C49.048 11.177 49.9131 10.5189 50.3757 10.0788C50.7008 9.76104 50.9955 9.4135 51.2558 9.04075C51.6844 8.46281 52.267 8.01707 52.937 7.75447L55.7991 6.87438C56.9613 6.51708 57.9542 7.31066 58.3303 8.27726L61.8131 19.583L61.8356 19.6695C61.8883 19.8914 62.0989 21.0461 61.279 21.8208C61.0648 22.0208 60.8074 22.1688 60.5268 22.2534L57.706 23.1222H57.6646C56.9626 23.2799 56.2305 23.2382 55.5509 23.0018C54.4226 22.6031 53.3394 22.227 50.4058 23.1297C49.0518 23.5434 47.4797 24.589 45.4901 25.9129C41.4507 28.5983 35.354 32.6452 24.3755 36.0264C18.8395 37.7383 13.0236 38.3578 7.25133 37.8505C7.04071 37.8505 6.81129 37.8016 6.62699 37.7866C4.15974 37.5609 1.77146 34.8529 1.23363 34.2023C0.916902 33.8562 0.652117 33.466 0.447567 33.0439C0.199102 32.5549 0.0556187 32.0194 0.0263274 31.4717L0 31.0166ZM2.7042 32.3631C3.83252 33.6644 5.74314 35.4096 6.84137 35.5111L7.45067 35.5675C10.2752 35.8458 15.537 36.3649 23.7135 33.8487C34.3761 30.5503 40.3036 26.6312 44.2226 24.0248C46.3664 22.6031 48.0589 21.4786 49.7288 20.9633C53.1137 19.9253 54.7009 20.3051 56.2994 20.8655C56.5412 20.9473 56.799 20.9705 57.0516 20.9332L59.5828 20.1547L56.1978 9.13102L53.6741 9.9058C53.5192 9.97768 53.3769 10.0742 53.2529 10.1916C53.1867 10.2538 53.1263 10.3217 53.0724 10.3947C52.7339 10.8793 52.3511 11.3313 51.929 11.745C50.9135 12.704 49.5746 13.4073 47.5887 14.0016C45.9188 14.5169 43.8878 14.5357 41.3153 14.5658C36.6064 14.6146 29.4943 14.6899 18.8204 17.9733C10.6476 20.4932 6.58938 23.8781 4.40797 25.6947L3.93407 26.0708C3.07655 26.7892 2.4823 29.3355 2.29049 31.0129L2.7042 32.3631Z" fill="#35302F"/>
<path d="M55.8254 17.3865C55.7051 17.0104 57.7624 16.3184 57.9204 16.8224C58.0783 17.3264 58.7892 19.4589 58.5372 19.5341C58.1611 19.6507 57.612 19.8087 56.9688 20.008C56.3257 20.2073 53.4071 19.2671 53.4071 19.2671C53.4071 19.2671 56.1 18.8007 56.416 18.7029C56.7319 18.6051 55.942 17.7664 55.8254 17.3865Z" fill="white"/>
<path d="M59.0487 23.9651V23.8222C58.793 20.362 55.4155 19.6474 54.8702 19.5571C53.9433 19.3011 52.991 19.1485 52.0306 19.1021C51.8651 19.1021 49.285 19.3465 48.6983 19.5195C47.239 19.9483 45.648 20.6102 44.1323 20.7494C41.8757 20.9563 39.2053 19.9408 37.5053 20.6967C35.6248 21.5317 36.2943 23.5476 36.3996 24.3111C36.8647 26.1474 37.9353 27.7733 39.4385 28.9259C40.2396 30.4304 37.3323 29.7872 35.7903 30.6636C32.4053 32.5817 28.1666 32.9202 24.5071 31.837C22.1903 31.1638 19.1814 30.5056 16.8496 29.9866C15.1997 29.6797 13.5676 29.2842 11.9602 28.8018C12.1558 29.7421 12.3702 30.5206 12.5206 31.0246C12.3514 33.1797 11.9264 39.6751 12.5996 43.9326C12.8553 45.5461 13.8257 47.201 14.766 48.822C15.3038 49.7359 15.631 50.3264 15.7476 50.5934C15.7476 51.4359 15.7476 53.9596 15.71 56.6826C16.8609 56.833 17.9666 57.0888 19.0949 57.2957C19.3206 55.701 19.5463 54.362 19.6817 54.2868C19.9036 53.9709 20.1706 55.6333 20.4339 57.4912C20.933 57.5558 21.4352 57.5935 21.9383 57.6041C24.5711 57.6454 27.1812 57.6229 29.8027 57.6041C32.2399 57.6041 34.1091 57.6567 36.3695 56.9948C38.7879 56.2877 41.2589 56.0771 43.7224 55.5881C44.0202 55.5296 44.3219 55.4931 44.625 55.4791V53.5985L44.8921 52.2069L50.3983 47.0994C50.6202 46.8775 55.8293 41.6271 57.4879 38.306C59.1465 34.985 59.0901 25.7667 59.0487 23.9651Z" fill="#35302F"/>
<path d="M56.3256 24.014C56.2467 22.9684 54.0878 22.2463 53.031 22.0733C51.9741 21.9003 44.625 22.8255 44.625 22.8255L39.3858 22.724C39.3858 22.724 38.171 23.1941 38.8969 25.1348C39.6228 27.0755 43.8803 29.272 43.8803 29.272L49.5219 30.0881L49.3338 30.9231C49.3338 30.9231 47.8068 31.0698 47.0283 31.1939C46.2498 31.318 45.9338 31.9912 44.798 32.3899C43.6622 32.7886 41.3453 32.1718 37.3022 34.5977C33.2591 37.0235 31.4914 45.1963 31.4914 45.1963C31.4914 45.1963 31.1152 36.7039 33.0371 34.451C34.9591 32.1981 36.8584 31.5361 38.1823 31.2465C39.5062 30.9569 42.6241 30.4943 42.6241 30.4943C41.454 29.9902 40.3907 29.2678 39.4911 28.3656C39.4911 28.3656 38.7803 28.9561 37.0577 29.1704C36.8625 29.4509 36.6126 29.6891 36.3231 29.8707C36.0335 30.0524 35.7103 30.1736 35.3728 30.2273C32.6874 30.6034 29.6071 30.6485 27.3655 31.0735C26.7383 31.2185 26.0836 31.1901 25.4714 30.9913C24.8592 30.7926 24.3126 30.4309 23.8902 29.9452C21.8969 30.0242 19.9073 29.7308 18.3427 28.4972C17.1916 28.8354 16.0076 29.0497 14.811 29.1366C15.048 30.1032 15.2586 30.7275 15.2586 30.7275C15.2586 30.7275 14.529 38.8439 15.2586 43.5151C15.5933 45.6176 18.4405 49.0815 18.4405 50.3452C18.4405 50.6875 18.4405 53.9107 18.4405 57.164C19.5897 57.4151 20.759 57.5637 21.9345 57.6078C24.5672 57.6492 27.1774 57.6266 29.7989 57.6078C32.236 57.6078 34.1053 57.6605 36.3657 56.9985C38.1821 56.5242 40.026 56.1624 41.8869 55.9154V53.3503L42.3646 50.8342L48.4387 45.1512C48.4387 45.1512 53.5387 40.0136 55.0055 37.0724C56.4723 34.1313 56.3256 24.014 56.3256 24.014Z" fill="white"/>
<path d="M55.8818 24.0328C55.9871 24.9354 56.0097 24.8527 55.8818 26.4812C55.5471 30.5582 51.0489 34.8308 48.3597 35.7485C40.9542 38.2496 35.5307 34.4096 35.4292 40.9162C34.9515 41.9129 33.2854 38.6897 32.9845 39.5773C33.0672 36.8166 32.3902 35.9215 33.4132 34.7255C35.2938 32.5403 37.0953 31.9385 38.3026 31.6753C39.2542 31.4722 41.1422 31.1638 42.1126 31.0133C42.5131 30.8209 42.8811 30.5671 43.2033 30.2611L42.8272 30.0919L42.673 30.0129C42.3984 29.9866 50.0484 29.9903 50.0936 29.7195C50.5261 27.162 39.9613 24.5443 39.1865 23.668C38.9947 23.7432 38.6787 24.4691 38.2951 25.3529C38.413 25.7017 38.4715 26.0679 38.4681 26.4361C38.4478 26.9394 38.3238 27.433 38.1037 27.886C37.8837 28.3391 37.5724 28.7418 37.1894 29.0689C36.9935 29.376 36.7352 29.6385 36.4313 29.8393C36.1274 30.0402 35.7847 30.1749 35.4254 30.2348C32.74 30.6109 29.6597 30.656 27.4181 31.081C26.791 31.226 26.1362 31.1976 25.524 30.9988C24.9118 30.8 24.3652 30.4384 23.9429 29.9527C21.9458 30.0317 19.9599 29.7383 18.3916 28.5047C17.0955 28.8811 15.7602 29.1057 14.4124 29.1742C14.6117 29.9828 14.7885 30.5695 14.8637 30.7877C14.7809 31.743 14.1792 39.1335 14.89 43.5753C15.0743 44.76 15.977 46.2945 16.7705 47.6485C17.3798 48.6828 18.0681 49.8563 18.0681 50.3377C18.0681 50.6799 18.0681 53.5082 18.0681 57.07C19.3608 57.3651 20.6775 57.5426 22.0022 57.6003C24.6349 57.6417 27.2451 57.6191 29.8666 57.6003C32.3037 57.6003 34.173 57.6529 36.4334 56.991C38.4117 56.4155 40.4276 56.1636 42.4511 55.8251L42.4172 53.3841L42.861 51.0485L48.8298 45.4633C49.0517 45.2414 54.0088 40.2317 55.4944 37.2604C56.3294 35.5905 56.6529 31.7919 56.7732 28.6852C56.7206 28.6852 56.619 28.7153 56.54 28.7304C57.1681 28.3618 57.1004 23.7808 55.8818 24.0328Z" fill="#DFDFDF"/>
<path d="M19.7944 41.4946C23.0928 42.3146 29.449 42.0814 29.449 40.8553C29.449 39.6292 26.1017 36.7181 23.4539 36.4172C16.7667 35.6876 17.6769 40.9681 19.7944 41.4946Z" fill="white"/>
<path d="M14.8524 43.5715C15.0367 44.7562 15.9394 46.2908 16.733 47.6447C17.3422 48.679 18.0305 49.8525 18.0305 50.3339C18.0305 50.8153 18.0305 53.7828 18.0305 57.07L18.8956 57.2355C18.8956 53.8843 18.9181 50.804 18.9181 50.3339C18.9181 49.6494 18.3803 48.6978 17.504 47.1972C16.7518 45.9109 15.8942 44.4554 15.7325 43.4361C15.0066 38.8702 15.7325 30.8365 15.7325 30.7576V30.6635L15.7024 30.5733C15.7024 30.5733 15.5031 29.979 15.2812 29.0688C14.9841 29.0989 14.6869 29.1215 14.386 29.1365C14.5854 29.9452 14.7622 30.5319 14.8374 30.75C14.7433 31.7242 14.1416 39.1146 14.8524 43.5715Z" fill="#35302F"/>
<path d="M57.1681 25.8489L56.98 24.3445C56.8747 22.904 54.0878 21.7982 53.1062 21.6365C52.9468 21.6136 52.7858 21.6036 52.6248 21.6064C50.8007 21.6064 45.1365 22.3135 44.6024 22.3812L39.3106 22.2759L39.2279 22.306C39.2279 22.306 37.6144 22.9642 38.4757 25.2848C39.2504 27.3609 43.4929 29.5573 43.6734 29.6513L43.7374 29.6852H43.8088L48.9916 30.4374V30.4938C48.4989 30.5465 47.5511 30.648 46.9794 30.7383C46.5435 30.8294 46.1374 31.0286 45.7984 31.3175C45.4585 31.588 45.0776 31.8026 44.6701 31.9531C44.3013 32.0485 43.9227 32.1015 43.5418 32.1111C41.2432 32.2398 39.0165 32.9587 37.0765 34.1985C34.5002 35.7443 34.0677 34.221 33.1688 36.8764C33.2515 34.1195 32.3564 35.9135 33.3794 34.7175C35.2599 32.5323 36.9674 32.3179 38.1747 32.0547C39.4798 31.7726 42.767 31.3175 42.7971 31.3175L44.1511 30.6932L42.7971 30.0763C41.6901 29.5964 40.6824 28.914 39.8259 28.0642L39.54 27.7483L39.2128 28.0228L38.6825 28.2861L39.4347 28.9217C39.7319 28.8352 39.5626 28.9217 39.4573 28.9217C40.0006 29.4185 40.5943 29.8572 41.2288 30.2306C40.2133 30.396 38.8593 30.6067 38.0807 30.791C36.7531 31.0806 34.5265 31.5657 32.7099 34.1308C30.254 37.6022 32.6573 42.0027 32.6723 42.3562L36.1889 46.4595C36.1889 46.4595 33.7029 37.2374 37.5354 34.9394C39.3651 33.7781 41.464 33.1095 43.6283 32.9987C44.0804 32.9876 44.5292 32.9181 44.9635 32.7918C45.4516 32.6139 45.9086 32.3601 46.3175 32.0396C46.5462 31.8361 46.8212 31.6915 47.1186 31.6184C47.8708 31.498 49.3752 31.3513 49.3752 31.3476L49.6911 31.3175L50.0673 29.7078C42.5226 28.8954 39.8447 26.4131 39.3106 24.9763C38.8405 23.7202 39.3106 23.2801 39.4911 23.1598L44.6476 23.2651H44.6777C44.7416 23.2651 50.8007 22.5129 52.621 22.5129C52.7337 22.5062 52.8468 22.5062 52.9595 22.5129C54.2684 22.731 55.8217 23.4456 55.8819 24.0398C55.8819 24.4761 56.0173 34.1195 54.6369 36.8764C53.2115 39.7235 48.198 44.7746 48.1491 44.8423L41.981 50.6155L41.4695 53.3498L41.4507 55.9826L42.688 55.5613V53.3498L43.0641 51.2361L48.8937 45.5945C49.1157 45.3726 54.3661 40.2914 55.8517 37.3201C57.3373 34.3489 57.1944 26.2664 57.1681 25.8489Z" fill="#35302F"/>
<path d="M24.981 32.5326L31.7697 38.4412L40.2433 32.0549L46.4491 29.9863L41.9358 28.2938L37.9867 24.3447L19.881 28.5233L18.0343 29.8171L24.981 32.5326Z" fill="#35302F"/>
<path d="M25.4548 46.723C25.4548 46.723 30.2502 45.5232 31.5064 44.7935C32.7626 44.0639 33.3869 42.0179 33.3869 42.0179L32.6949 37.6964L30.5059 37.3579C30.5059 37.3579 31.1491 42.6798 29.2949 44.1654C28.0674 45.0943 26.7851 45.9484 25.4548 46.723Z" fill="#35302F"/>
<path d="M42.3307 51.5111L46.5206 48.8294V46.3584L39.8672 49.7697L42.3307 51.5111Z" fill="#35302F"/>
<path d="M16.2591 48.9346L18.9031 51.5109L19.4334 49.3934L20.6595 47.5167L18.5872 47.118L16.2591 44.9629V48.9346Z" fill="#35302F"/>
<path d="M11.0275 24.2921C11.2708 25.8948 11.6844 27.467 12.2611 28.9821C12.7877 29.1325 13.318 29.298 13.852 29.4673C15.9018 29.881 16.5111 25.1872 18.2412 26.3832C20.0954 27.662 23.77 26.1463 23.77 26.1463C29.4116 28.3728 29.2874 25.7137 31.435 25.2624C32.4279 24.9089 33.1388 26.0372 34.143 25.7213C35.4142 25.3452 37.4151 23.7843 39.9501 22.829C39.9501 22.829 39.9501 24.3334 42.8611 24.5516C44.6589 24.6757 47.5587 23.5173 48.8788 21.4562C50.0297 19.6584 49.8605 15.0624 49.8605 15.0624C49.8868 12.5876 50.7293 7.19051 49.631 5.08055C48.2394 2.39891 46.5582 1.1352 42.5828 1.9363C41.1085 2.23343 38.5735 3.69272 37.889 5.01661C36.7793 4.56978 35.5779 4.39815 34.3874 4.51639L34.252 4.5352C31.3335 4.9113 29.5695 6.09228 28.6104 7.03254C27.5538 6.45147 26.3322 6.24345 25.1427 6.44206C24.8414 6.48164 24.5426 6.53814 24.2476 6.6113C22.0636 7.1311 20.135 8.40927 18.8054 10.2182H18.764C18.1581 10.0588 17.5264 10.0217 16.906 10.1091C14.3146 10.4513 11.9602 12.802 11.5127 13.2721L11.4638 13.3248L11.3171 13.4978C10.595 14.4418 9.43655 16.3036 9.81266 18.1465L11.0275 24.2921Z" fill="#35302F"/>
<path d="M40.4352 17.0334C39.9538 16.488 40.1568 9.5338 40.1568 9.5338L39.8672 7.19442C39.8672 7.19442 43.8841 2.26743 46.9569 6.35194C47.2765 6.77694 46.8628 15.198 46.8628 15.198C46.8628 15.198 41.7026 17.3869 40.4352 17.0334Z" fill="white"/>
<path d="M44.215 13.4491C42.8159 13.6334 40.454 13.7237 40.1155 12.4111C40.1155 14.3931 40.2584 17.402 40.1907 18.4288C40.0553 20.7719 47.2164 21.0013 47.0133 16.7814C47.1111 13.4905 47.0321 11.7642 47.0321 11.7642C46.5018 13.1144 45.4035 13.2912 44.215 13.4491Z" fill="#DFDFDF"/>
<path d="M38.6223 17.3337C38.6223 17.3337 36.9186 17.3638 36.629 18.3605C35.8768 20.9932 37.6257 23.0242 37.6257 23.0242C37.6257 23.0242 36.1212 23.9156 34.6168 23.6598C33.1124 23.4041 32.5144 23.1671 31.6719 21.926C30.8294 20.6848 29.9869 9.61976 29.9869 9.61976C29.9869 9.61976 31.1153 7.67905 34.7334 7.23524C38.3515 6.79144 38.4042 9.82661 38.4042 9.82661L38.6223 17.3337Z" fill="white"/>
<path d="M30.2314 16.8906C30.7316 16.7966 29.7613 13.0694 30.1562 13.0054C30.4759 12.9528 31.3221 16.6123 32.0593 16.5672C33.0597 16.507 35.3164 16.7063 36.5726 16.0406C38.5396 15.0101 37.5542 13.4079 38.3026 13.3251C38.8781 13.2612 38.7502 15.8112 39.006 15.7886L39.0549 17.3231V17.7256L38.9909 17.7707C38.9909 17.7707 39.9049 21.3701 37.573 23.5402C36.9962 23.8249 36.378 24.0166 35.7414 24.1081C35.3324 24.1685 34.9167 24.1685 34.5077 24.1081C32.8717 23.8373 32.1721 23.5214 31.2695 22.1862C30.9009 21.5957 30.5285 19.3466 30.2314 16.8906Z" fill="#DFDFDF"/>
<path d="M37.7799 7.53668C37.0277 6.88601 35.9896 6.63778 34.6657 6.78447H34.5454C30.8257 7.27716 29.656 9.28557 29.5883 9.36832L29.5206 9.48491V9.62031C29.6597 11.5008 30.2088 21.1442 31.0739 22.4079C31.9389 23.6716 32.6761 24.0553 34.3122 24.3298C34.6883 24.3938 35.3201 24.123 35.7527 24.0665C36.4867 23.9755 37.1979 23.7512 37.8513 23.4046L38.3064 23.1376L38.517 22.4418C38.517 22.4418 38.1409 20.9373 38.1409 20.911C37.6106 22.6524 36.8584 23.0924 35.7301 23.2203H35.6436C35.3206 23.2673 34.9925 23.2673 34.6695 23.2203C33.229 22.9796 32.7626 22.7727 32.0367 21.6708C31.4613 20.8546 30.7504 14.0019 30.4232 9.7369C30.6978 9.36079 31.8336 8.06323 34.6619 7.68712H34.7748C35.8354 7.55548 36.6553 7.73225 37.1969 8.20991C37.6436 8.6403 37.9122 9.22298 37.9491 9.84221L38.1409 15.9464C38.2237 16.1608 38.1146 21.4075 38.1409 21.6444C38.2726 21.9491 37.9754 23.6942 38.1409 23.9913C38.1861 24.0778 39.4423 22.8104 39.4836 22.9006L39.431 17.7931V17.3455L38.8367 9.8234C38.7968 8.95233 38.4175 8.13151 37.7799 7.53668Z" fill="#35302F"/>
<path d="M29.686 22.8329C29.686 22.8329 29.6183 24.4276 26.6283 24.8677C26.01 24.996 25.3662 24.8746 24.837 24.5301C24.3079 24.1856 23.9365 23.6458 23.8037 23.0285C23.8037 23.0285 21.7803 15.2958 21.5772 14.5285C21.3209 13.8411 20.9676 13.1939 20.5278 12.6066C20.9755 11.7733 21.5954 11.0448 22.3463 10.4696C23.0972 9.89444 23.962 9.48568 24.8831 9.27054C28.0838 8.48072 28.2418 11.0382 28.2418 11.0382L29.686 22.8329Z" fill="white"/>
<path d="M29.4228 17.0449L30.1223 22.7805V22.852C30.1223 22.9309 30.002 24.8152 26.6885 25.3042H26.6283C25.9056 25.4391 25.1589 25.2838 24.5499 24.872C23.941 24.4601 23.5188 23.8249 23.375 23.104L22.1677 18.5155C22.5964 18.4252 21.1484 15.5593 21.581 15.469C21.7953 15.4239 23.4916 18.2108 23.7097 18.1657C24.8794 17.925 26.854 17.5865 28.0274 17.3533C28.3358 17.2931 28.4035 14.7205 28.7232 14.6754C29.0429 14.6303 29.1332 17.1013 29.4228 17.0449Z" fill="#DFDFDF"/>
<path d="M23.3186 23.3216L21.0055 14.9645C20.8066 14.2384 20.5265 13.5369 20.1706 12.8734L20.0164 12.6628L20.1254 12.4296C20.599 11.5342 21.2595 10.7511 22.0623 10.1334C22.865 9.51559 23.7911 9.07759 24.7779 8.84905C26.0566 8.53312 27.0683 8.67228 27.7867 9.25524C28.2937 9.70074 28.6134 10.3214 28.6818 10.9929L30.521 23.3818V23.457C30.521 23.536 30.348 25.0668 27.0345 25.5557L26.7223 25.6008L26.4779 25.6685C24.319 25.9544 23.4916 24.213 23.3186 23.3216ZM27.8318 11.0944V11.0681C27.7806 10.6321 27.5704 10.2303 27.2414 9.93976C26.7599 9.56365 26.004 9.46963 25.0223 9.71409C24.2061 9.90651 23.436 10.2584 22.7563 10.7497C22.0766 11.2409 21.5008 11.8616 21.0619 12.5763C21.4714 13.1387 21.7959 13.7584 22.0248 14.4154L24.2513 22.9041V22.9267C24.3011 23.1757 24.3997 23.4124 24.5414 23.6231C24.6832 23.8338 24.8653 24.0143 25.0772 24.1542C25.2892 24.294 25.5267 24.3905 25.7762 24.4381C26.0256 24.4856 26.282 24.4833 26.5305 24.4311H26.5794C28.9526 24.0814 29.2122 23.0095 29.2573 22.8364L27.8318 11.0944Z" fill="#35302F"/>
<path d="M13.8896 24.8105C15.0917 24.9001 16.2858 25.0761 17.4626 25.3371C16.8644 24.544 16.3666 23.6799 15.9807 22.7645L15.9582 22.7119C15.3113 21.136 14.6832 19.4736 14.7057 18.9997C14.7434 18.0331 15.3714 18.586 15.3714 18.586C15.3714 18.586 16.8495 23.103 18.8053 24.4683C20.7611 25.8336 21.8781 24.1524 22.0323 23.1369C22.1865 22.1214 20.0465 14.7535 20.0465 14.7535C20.0239 14.5353 19.896 13.328 18.0531 12.8316C16.2102 12.3351 13.4872 15.1296 13.4872 15.1296C13.4872 15.1296 12.3024 16.6791 12.483 17.5855C12.6635 18.492 13.7241 23.8252 13.7241 23.8252C13.7692 24.1561 13.8257 24.4909 13.8896 24.8105Z" fill="white"/>
<path d="M15.9582 22.7125C15.3113 21.1366 14.6832 19.4742 14.7057 19.0003C14.6042 18.9176 14.4989 18.8311 14.4011 18.7371C13.7441 18.0901 13.1625 17.371 12.6672 16.5933C12.5126 16.9133 12.45 17.2702 12.4867 17.6238C12.6672 18.5264 13.7279 23.8634 13.7279 23.8634C13.773 24.1906 13.8294 24.5141 13.8934 24.8338C15.0955 24.9233 16.2895 25.0993 17.4664 25.3603C16.8681 24.5672 16.3704 23.7031 15.9845 22.7877L15.9582 22.7125Z" fill="#DFDFDF"/>
<path d="M20.4489 25.4095C19.764 25.4649 19.0837 25.2578 18.5458 24.8303C17.3761 24.0104 16.3907 22.1975 15.7513 20.7533C16.417 20.4599 15.4655 19.8055 15.7852 20.4787C15.631 20.1591 13.9686 19.2301 15.5144 18.5343C15.7664 18.4214 17.2821 20.1553 17.5416 20.0387C18.4141 19.6626 19.2491 19.2865 19.5726 19.1624C19.7004 19.1248 19.896 19.0646 20.1066 19.0082C20.2571 18.963 20.0239 15.9467 20.1706 15.9091C20.3172 15.8714 20.8551 18.8013 20.9566 18.775L21.5697 18.6358C22.0812 20.6066 22.5664 22.6526 22.461 23.2055C22.3407 23.9991 21.7051 25.2402 20.4489 25.4095Z" fill="#DFDFDF"/>
<path d="M40.1531 23.0814C40.3525 22.8257 40.2359 22.4985 40.4991 22.3292C40.4314 22.2803 39.95 22.8482 39.95 22.8482L39.4912 22.9084L39.0549 22.9648C39.0549 22.9648 38.0432 23.7885 35.764 24.127C32.4918 24.6197 31.6907 24.285 31.6531 24.221L30.9686 23.025L30.8407 24.3715C30.8407 24.4204 30.6527 25.6991 28.5841 26.4438C28.3403 26.5293 28.0882 26.5886 27.8319 26.6206C25.9062 26.8763 24.0182 25.6089 23.9994 25.5976L23.6458 25.3569L23.3938 25.6954C22.8322 26.3262 22.0502 26.7179 21.2086 26.7898C20.9917 26.819 20.7731 26.8328 20.5542 26.8312C18.1998 26.7898 16.5487 23.0288 16.387 22.5963L16.3644 22.5436C16.0477 21.8523 15.7727 21.1427 15.5407 20.4186C16.0861 21.8403 16.9812 23.9991 18.5044 25.0635C19.0408 25.4983 19.7227 25.7122 20.4113 25.6615C21.6637 25.4923 22.7168 24.4467 22.8372 23.6531C22.9989 22.6038 21.2425 16.4544 20.8589 15.1305C20.6952 14.4786 20.3587 13.8829 19.8847 13.4063C19.4108 12.9297 18.817 12.5899 18.1659 12.4226C17.8516 12.3421 17.5244 12.3242 17.2031 12.3699C15.3226 12.6219 13.254 14.7507 13.1675 14.8409L13.1374 14.8786C13.0058 15.0516 11.8398 16.6162 12.0505 17.6881L13.2916 23.9126C13.6045 25.8983 14.1839 27.8326 15.0142 29.6633C15.3602 29.7122 15.7025 29.7536 16.0485 29.7874L16.0184 29.731C15.1235 27.8448 14.4993 25.8417 14.1642 23.781V23.7509L12.9155 17.5151C12.8215 17.0336 13.3856 16.0106 13.8219 15.4352C14.01 15.2434 15.8078 13.4456 17.3197 13.2463C17.5263 13.2146 17.7371 13.2235 17.9403 13.2726C19.2943 13.6487 19.5651 14.4009 19.6064 14.8109V14.8522V14.8898C20.4828 17.8987 21.6713 22.4383 21.5735 23.0702C21.4907 23.6193 21.0469 24.4392 20.3173 24.5332C19.8532 24.5544 19.3976 24.403 19.0385 24.1082C17.2445 22.8445 15.7965 18.4817 15.7965 18.4365L15.7626 18.3237L15.6724 18.2447C15.5718 18.1514 15.4531 18.0799 15.3237 18.0346C15.1943 17.9893 15.0569 17.9712 14.9202 17.9814C14.687 18.0153 14.2883 18.1808 14.2544 18.9706C14.2544 19.294 14.3748 20.0237 15.5407 22.8708L15.5671 22.9348L15.6724 23.1792C16.1876 24.3376 17.929 27.6925 20.5392 27.6925C20.7994 27.6965 21.0597 27.6815 21.3177 27.6474C22.2477 27.5416 23.1211 27.147 23.8151 26.519C24.4996 26.8952 26.1657 27.7263 27.9522 27.4932C28.265 27.4513 28.5726 27.3769 28.8699 27.2713C30.4044 26.7221 31.1266 25.8797 31.4425 25.2591C32.1195 25.8421 33.4998 26.5604 36.0272 26.1843C37.2533 26.0038 37.4301 25.9323 38.3704 23.4914C38.9797 22.2766 40.0215 23.2582 40.1531 23.0814Z" fill="#35302F"/>
<path d="M38.1221 27.6734C39.5927 27.5304 36.7493 22.5545 38.2237 22.453C40.5367 22.2988 48.3785 23.8521 50.6765 23.7092C53.8735 23.5099 55.8668 26.4472 59.0637 26.2441C59.0637 25.1948 59.0637 24.3636 59.0637 23.9649V23.8258C58.808 20.3618 54.0352 19.463 53.4936 19.3727C53.2083 19.3319 52.9204 19.3131 52.6323 19.3163H52.0606C51.8914 19.3351 49.3 19.903 48.7133 20.0685C47.254 20.4972 45.663 20.5913 44.1473 20.7304C41.8907 20.9373 39.2203 19.9218 37.5203 20.6778C35.6398 21.5127 36.3093 23.5287 36.4146 24.2922C36.7147 25.5361 37.2991 26.6935 38.1221 27.6734Z" fill="#35302F"/>
<path d="M40.1155 26.1052C38.8969 24.1494 43.6697 25.6802 46.2159 26.5339C48.4124 27.2861 47.1675 27.1282 49.4805 26.9853C51.7936 26.8423 54.0389 26.6092 56.3219 26.4437C56.3407 24.9994 56.3219 24.014 56.3219 24.014C56.2429 22.9684 54.0841 22.2463 53.0272 22.0733C51.9703 21.9003 44.6212 22.8255 44.6212 22.8255L39.3821 22.724C39.3821 22.724 38.1672 23.1941 38.8931 25.1348C39.1865 25.9021 39.194 25.4056 40.1155 26.1052Z" fill="white"/>
<path d="M40.3186 27.4665L41.635 27.3649C40.5894 26.6127 39.5965 25.7439 39.3107 24.9766C38.8405 23.7204 39.3107 23.2804 39.4912 23.16L44.6476 23.2654H44.6777C44.7416 23.2654 50.8007 22.5131 52.6211 22.5131C52.7338 22.5065 52.8468 22.5065 52.9596 22.5131C54.2684 22.7313 55.8217 23.4459 55.8819 24.0401C55.8819 24.1718 55.8819 25.1346 55.8819 26.4886L56.7658 26.4171C56.7846 25.0744 56.7658 24.1342 56.7658 24.0138V23.9875C56.6605 22.547 54.0879 21.8061 53.1062 21.6443C52.9468 21.6214 52.7859 21.6114 52.6248 21.6142C50.8007 21.6142 45.1366 22.3213 44.6025 22.389L39.3107 22.2762L39.2279 22.3063C39.2279 22.3063 37.6144 22.9645 38.4757 25.285C38.7616 26.0373 39.4912 26.7895 40.3186 27.4665Z" fill="#35302F"/>
<path d="M53.7832 20.666C53.7832 22.0726 49.1872 20.666 49.1872 20.666V11.6395C49.1872 11.6395 48.9804 3.08304 49.868 5.66313C50.7556 8.24322 51.1355 17.1419 51.1355 17.1419C51.1355 17.1419 53.7569 19.2669 53.7832 20.666Z" fill="#35302F"/>
<path d="M17.44 43.8985C17.3235 43.8082 17.3423 43.7594 17.44 43.8985C18.3352 45.2412 19.99 46.0273 21.5772 46.1815C21.675 46.1815 21.6675 46.2078 21.5772 46.1815C20.8708 45.9353 20.1935 45.6125 19.5575 45.2186" fill="#35302F"/>
<path d="M40.2434 47.7608C39.8259 47.9263 39.8109 47.885 40.2434 47.7608C44.1511 46.6325 47.5549 44.3383 49.6461 40.8066C49.6461 40.8066 46.908 43.4131 46.5733 43.7102" fill="#35302F"/>
<path d="M20.8776 53.5416C20.8776 53.9892 21.0394 54.4555 21.0394 54.008L21.5057 52.3644C21.5427 51.3328 21.4428 50.3008 21.2086 49.2954C21.265 48.8516 21.265 48.8591 21.2086 49.2954" fill="#35302F"/>
<path d="M31.5553 59.9883C20.998 59.9883 14.2018 56.844 13.916 56.7124L15.1834 53.5155L14.5478 55.1139L15.1797 53.5117C15.2436 53.5418 21.7014 56.5206 31.5553 56.5206C41.2965 56.5206 46.3739 53.6246 46.4266 53.5945L47.931 56.656C47.7166 56.7801 42.1916 59.9883 31.5553 59.9883Z" fill="#35302F"/>
<path d="M17.0377 68.3758L14.781 65.5587C13.773 64.3094 13.2234 62.7523 13.2239 61.147V54.6968H17.0377V68.3758Z" fill="#35302F"/>
<path d="M44.7943 68.3758V54.6968H48.4425V64.7426C48.442 65.2208 48.3472 65.6943 48.1635 66.1358C47.9798 66.5774 47.7108 66.9784 47.3719 67.3159C47.0331 67.6533 46.631 67.9206 46.1886 68.1025C45.7463 68.2844 45.2725 68.3773 44.7943 68.3758Z" fill="#35302F"/>
<path d="M39.2429 22.7916C37.0578 23.5439 34.9177 24.3487 32.6385 24.8828C29.7651 25.556 26.4929 26.4624 23.5254 26.5189C21.6449 26.5565 19.2491 26.0563 17.9327 24.5368C17.0188 23.4837 16.5712 22.4945 15.9356 21.3098C15.7563 20.9729 15.6114 20.6189 15.5031 20.2529L11.7872 21.3135C11.9833 22.2116 12.1326 23.1193 12.2347 24.0328C12.1407 23.2505 12.9531 26.1164 12.5431 25.1611C12.9192 26.0224 13.412 26.9062 13.5699 27.8465C13.9122 29.8436 14.1717 31.7806 14.3823 33.7439C14.5114 35.0339 14.3309 36.3362 13.8558 37.5425C21.1673 35.0113 30.427 31.8182 38.8894 28.9147C38.8104 28.8056 38.7314 28.704 38.6562 28.5874C37.2759 26.5189 37.825 24.3111 39.2429 22.7916Z" fill="#35302F"/>
<path d="M6.95801 34.876C6.95801 34.876 9.6735 36.151 17.489 33.7477C21.5923 32.484 26.1394 30.9237 37.0465 25.2853C37.4903 25.0559 37.1067 24.7888 37.6107 25.6614C37.795 25.9849 37.8025 25.9134 37.9943 26.2331L38.0319 26.297C31.9691 29.0464 27.3003 31.2246 21.4381 33.1046C8.83854 37.1452 6.95801 34.876 6.95801 34.876Z" fill="white"/>
<path d="M44.5046 61.7257C32.3301 64.6593 21.517 61.4887 21.517 61.4887C21.517 61.4887 36.1852 62.9931 44.0834 59.296C47.5887 57.6487 48.8675 60.6763 44.5046 61.7257Z" fill="#35302F"/>
<path d="M44.5046 65.1823C32.3301 68.1159 21.517 64.9491 21.517 64.9491C21.517 64.9491 36.1852 66.4535 44.0834 62.7564C47.5887 61.109 48.8675 64.1329 44.5046 65.1823Z" fill="#35302F"/>
<path d="M44.7981 68.6425C32.6235 71.5724 21.8105 68.4056 21.8105 68.4056C21.8105 68.4056 36.4786 69.91 44.3769 66.2129C47.8822 64.5655 49.1609 67.5894 44.7981 68.6425Z" fill="#35302F"/>
<path d="M76.658 67.112C76.0999 67.112 75.5944 66.9909 75.1415 66.7487C74.694 66.5012 74.3412 66.1616 74.0832 65.7298C73.8304 65.298 73.7041 64.811 73.7041 64.2686C73.7041 63.7263 73.8331 63.2392 74.0911 62.8075C74.3491 62.3757 74.7019 62.0387 75.1494 61.7965C75.6023 61.549 76.1078 61.4253 76.6659 61.4253C77.1187 61.4253 77.5321 61.5043 77.9059 61.6622C78.2798 61.8202 78.5957 62.0492 78.8537 62.3494L78.1903 62.9733C77.7901 62.5416 77.2978 62.3257 76.7133 62.3257C76.3342 62.3257 75.9946 62.4099 75.6944 62.5784C75.3943 62.7416 75.16 62.9707 74.9915 63.2656C74.823 63.5604 74.7387 63.8948 74.7387 64.2686C74.7387 64.6425 74.823 64.9768 74.9915 65.2717C75.16 65.5666 75.3943 65.7983 75.6944 65.9668C75.9946 66.13 76.3342 66.2116 76.7133 66.2116C77.2978 66.2116 77.7901 65.9931 78.1903 65.556L78.8537 66.1879C78.5957 66.488 78.2771 66.7171 77.898 66.8751C77.5242 67.033 77.1108 67.112 76.658 67.112Z" fill="#35302F"/>
<path d="M84.6645 66.1721V67.033H80.5179V61.5043H84.5539V62.3652H81.5447V63.8026H84.2143V64.6477H81.5447V66.1721H84.6645Z" fill="#35302F"/>
<path d="M88.7946 61.5043C89.2738 61.5043 89.6898 61.5832 90.0425 61.7412C90.4006 61.8992 90.6744 62.1256 90.864 62.4204C91.0535 62.7153 91.1483 63.0655 91.1483 63.4709C91.1483 63.8711 91.0535 64.2212 90.864 64.5214C90.6744 64.8162 90.4006 65.0427 90.0425 65.2006C89.6898 65.3586 89.2738 65.4376 88.7946 65.4376H87.5467V67.033H86.5199V61.5043H88.7946ZM88.7472 64.5688C89.1948 64.5688 89.5344 64.474 89.7661 64.2844C89.9978 64.0949 90.1136 63.8237 90.1136 63.4709C90.1136 63.1181 89.9978 62.847 89.7661 62.6574C89.5344 62.4678 89.1948 62.3731 88.7472 62.3731H87.5467V64.5688H88.7472Z" fill="#35302F"/>
<path d="M96.4716 64.1581C96.8244 64.2528 97.0929 64.4161 97.2772 64.6477C97.4615 64.8742 97.5536 65.1585 97.5536 65.5008C97.5536 65.9852 97.3746 66.3617 97.0166 66.6302C96.6585 66.8987 96.1399 67.033 95.4606 67.033H92.8384V61.5043H95.3105C95.9319 61.5043 96.4163 61.628 96.7638 61.8755C97.1113 62.1229 97.2851 62.4731 97.2851 62.9259C97.2851 63.2155 97.214 63.4656 97.0719 63.6763C96.9349 63.8869 96.7349 64.0475 96.4716 64.1581ZM93.8494 63.8658H95.2237C95.5554 63.8658 95.8081 63.8 95.9819 63.6684C96.1557 63.5367 96.2425 63.3419 96.2425 63.0839C96.2425 62.8259 96.1557 62.6311 95.9819 62.4994C95.8081 62.3625 95.5554 62.2941 95.2237 62.2941H93.8494V63.8658ZM95.429 66.2432C96.1557 66.2432 96.519 65.9694 96.519 65.4218C96.519 64.8847 96.1557 64.6162 95.429 64.6162H93.8494V66.2432H95.429Z" fill="#35302F"/>
<path d="M99.4421 61.5043H100.453V65.4297L103.423 61.5043H104.378V67.033H103.367V63.1155L100.398 67.033H99.4421V61.5043Z" fill="#35302F"/>
<path d="M109.183 67.112C108.625 67.112 108.119 66.9909 107.666 66.7487C107.219 66.5012 106.866 66.1616 106.608 65.7298C106.355 65.298 106.229 64.811 106.229 64.2686C106.229 63.7263 106.358 63.2392 106.616 62.8075C106.874 62.3757 107.227 62.0387 107.674 61.7965C108.127 61.549 108.632 61.4253 109.191 61.4253C109.643 61.4253 110.057 61.5043 110.431 61.6622C110.804 61.8202 111.12 62.0492 111.378 62.3494L110.715 62.9733C110.315 62.5416 109.822 62.3257 109.238 62.3257C108.859 62.3257 108.519 62.4099 108.219 62.5784C107.919 62.7416 107.685 62.9707 107.516 63.2656C107.348 63.5604 107.263 63.8948 107.263 64.2686C107.263 64.6425 107.348 64.9768 107.516 65.2717C107.685 65.5666 107.919 65.7983 108.219 65.9668C108.519 66.13 108.859 66.2116 109.238 66.2116C109.822 66.2116 110.315 65.9931 110.715 65.556L111.378 66.1879C111.12 66.488 110.802 66.7171 110.423 66.8751C110.049 67.033 109.636 67.112 109.183 67.112Z" fill="#35302F"/>
<path d="M117.955 61.5043V67.033H116.929V64.6635H114.069V67.033H113.043V61.5043H114.069V63.7868H116.929V61.5043H117.955Z" fill="#35302F"/>
<path d="M122.768 63.3761C123.432 63.3761 123.94 63.5262 124.292 63.8263C124.651 64.1212 124.83 64.5609 124.83 65.1453C124.83 65.7561 124.635 66.2248 124.245 66.5512C123.855 66.8724 123.308 67.033 122.602 67.033H120.225V61.5043H121.236V63.3761H122.768ZM122.555 66.2432C122.955 66.2432 123.263 66.151 123.479 65.9668C123.695 65.7825 123.803 65.5139 123.803 65.1611C123.803 64.4924 123.387 64.1581 122.555 64.1581H121.236V66.2432H122.555ZM125.627 61.5043H126.638V67.033H125.627V61.5043Z" fill="#35302F"/>
<path d="M128.911 61.5043H129.922V65.4297L132.892 61.5043H133.847V67.033H132.837V63.1155L129.867 67.033H128.911V61.5043ZM131.367 61.133C130.894 61.133 130.536 61.0356 130.293 60.8408C130.056 60.646 129.935 60.3616 129.93 59.9878H130.649C130.654 60.1826 130.717 60.3327 130.838 60.438C130.959 60.5433 131.136 60.596 131.367 60.596C131.594 60.596 131.77 60.5433 131.897 60.438C132.028 60.3327 132.097 60.1826 132.102 59.9878H132.813C132.808 60.3564 132.681 60.6407 132.434 60.8408C132.192 61.0356 131.836 61.133 131.367 61.133Z" fill="#35302F"/>
<path d="M144.649 66.1642V68.2493H143.702V67.033H139.01V61.5043H140.021V66.1642H142.809V61.5043H143.828V66.1642H144.649Z" fill="#35302F"/>
<path d="M150.447 66.1721V67.033H146.3V61.5043H150.336V62.3652H147.327V63.8026H149.996V64.6477H147.327V66.1721H150.447Z" fill="#35302F"/>
<path d="M157.215 61.5043V67.033H156.188V64.6635H153.329V67.033H152.302V61.5043H153.329V63.7868H156.188V61.5043H157.215Z" fill="#35302F"/>
<path d="M163.489 62.3731H161.656V67.033H160.638V62.3731H158.813V61.5043H163.489V62.3731Z" fill="#35302F"/>
<path d="M167.36 61.5043C167.839 61.5043 168.255 61.5832 168.608 61.7412C168.966 61.8992 169.24 62.1256 169.429 62.4204C169.619 62.7153 169.714 63.0655 169.714 63.4709C169.714 63.8711 169.619 64.2212 169.429 64.5214C169.24 64.8162 168.966 65.0427 168.608 65.2006C168.255 65.3586 167.839 65.4376 167.36 65.4376H166.112V67.033H165.085V61.5043H167.36ZM167.312 64.5688C167.76 64.5688 168.1 64.474 168.331 64.2844C168.563 64.0949 168.679 63.8237 168.679 63.4709C168.679 63.1181 168.563 62.847 168.331 62.6574C168.1 62.4678 167.76 62.3731 167.312 62.3731H166.112V64.5688H167.312Z" fill="#35302F"/>
<path d="M98.3295 29.4148V54.3842H91.4094L81.9211 43.041V54.3842H73.7168V29.4148H80.6369L90.1253 40.7581V29.4148H98.3295Z" fill="#35302F"/>
<path d="M133.076 54.9549C130.436 54.9549 128.058 54.4079 125.942 53.314C123.825 52.1964 122.161 50.6506 120.948 48.6769C119.759 46.6793 119.165 44.4202 119.165 41.8994C119.165 39.3787 119.759 37.1315 120.948 35.1577C122.161 33.1601 123.825 31.6144 125.942 30.5205C128.058 29.4028 130.436 28.844 133.076 28.844C135.502 28.844 137.666 29.272 139.568 30.1281C141.471 30.9842 143.04 32.2208 144.277 33.8379L138.962 38.5821C137.416 36.6321 135.597 35.6571 133.504 35.6571C131.744 35.6571 130.329 36.2278 129.259 37.3693C128.189 38.487 127.654 39.997 127.654 41.8994C127.654 43.8019 128.189 45.3238 129.259 46.4653C130.329 47.583 131.744 48.1418 133.504 48.1418C135.597 48.1418 137.416 47.1668 138.962 45.2168L144.277 49.961C143.04 51.5781 141.471 52.8147 139.568 53.6707C137.666 54.5268 135.502 54.9549 133.076 54.9549Z" fill="#35302F"/>
<path d="M170 48.0349V54.3842H149.24V29.4148H169.536V35.7642H157.515V38.6892H166.569V44.7532H157.515V48.0349H170Z" fill="#35302F"/>
<path fill-rule="evenodd" clip-rule="evenodd" d="M111.737 54.3842H107.412C107.326 54.2343 107.088 53.3538 106.831 52.3986C106.527 51.2719 106.196 50.0412 106.051 49.7827L105.229 49.7868L104.321 48.8901L110.603 46.6427L105.65 47.0051C105.645 46.967 105.64 46.9095 105.635 46.8413C105.614 46.5791 105.58 46.1597 105.482 46.089L104.315 45.1736L110.873 42.8673C110.879 42.8454 110.893 42.8365 110.907 42.8276C110.914 42.8229 110.922 42.8183 110.928 42.8117L106.959 43.1174C106.734 43.1227 106.551 43.155 106.368 43.1872C106.147 43.2262 105.927 43.2651 105.634 43.2556L105.642 42.3908L104.259 41.4317L110.88 39.0991L105.624 39.4492L105.589 38.5857L104.296 37.5674L110.407 35.5713L105.485 35.6089L105.485 31.8196L113.099 29.2816L113.104 34.5895C113.237 34.7057 113.482 34.8854 113.748 35.0808C114.2 35.4126 114.714 35.7899 114.847 35.9793C114.181 36.5298 113.567 37.0419 113.091 37.4761C113.093 37.7638 113.081 37.9544 113.074 38.0816C113.065 38.2372 113.061 38.2978 113.094 38.3253C113.458 38.6308 113.797 38.8927 114.151 39.1657C114.378 39.3414 114.611 39.5217 114.861 39.7212C114.162 40.3287 113.726 40.6909 113.096 41.1451L113.104 42.0733C113.202 42.2182 113.69 42.5847 114.139 42.922C114.423 43.135 114.691 43.3364 114.836 43.4631C114.588 43.6613 114.387 43.8186 114.216 43.9528C113.728 44.335 113.481 44.5287 113.061 44.9404C113.061 44.9404 113.039 45.5472 113.035 45.9394C113.48 46.2163 113.793 46.439 114.12 46.6723C114.347 46.834 114.582 47.0008 114.872 47.1943C114.349 47.6803 113.916 48.0138 113.44 48.3808C113.329 48.4664 113.216 48.5537 113.098 48.6453L111.737 54.3842ZM113.097 26.8376L105.485 29.3749L105.485 25.5012H101.549C101.549 21.6015 104.57 18.5154 108.254 18.5154V21.5363H110.555V18.5154C114.576 18.5154 117.031 21.5663 117.031 25.5012H113.096L113.097 26.8376Z" fill="#35302F"/>
</svg>
